<svg id="app_info_1" xmlns="http://www.w3.org/2000/svg" width="453.11" height="352.145" viewBox="0 0 453.11 352.145">
  <g id="Background_Complete" data-name="Background Complete" transform="translate(0 -54.953)">
    <g id="Group_1" data-name="Group 1" transform="translate(0 54.953)">
      <rect id="Rectangle_1" data-name="Rectangle 1" width="33.122" height="0.25" transform="translate(369.889 343.541)" fill="#ebebeb"/>
      <rect id="Rectangle_2" data-name="Rectangle 2" width="8.693" height="0.25" transform="translate(291.745 346.255)" fill="#ebebeb"/>
      <rect id="Rectangle_3" data-name="Rectangle 3" width="19.192" height="0.25" transform="translate(357.909 334.255)" fill="#ebebeb"/>
      <rect id="Rectangle_4" data-name="Rectangle 4" width="43.193" height="0.25" transform="translate(52.459 335.935)" fill="#ebebeb"/>
      <rect id="Rectangle_5" data-name="Rectangle 5" width="6.333" height="0.25" transform="translate(94.625 335.935)" fill="#ebebeb"/>
      <rect id="Rectangle_6" data-name="Rectangle 6" width="93.676" height="0.25" transform="translate(116.299 340.158)" fill="#ebebeb"/>
      <path id="Path_1" data-name="Path 1" d="M237.014,337.8H43.915a5.715,5.715,0,0,1-5.708-5.708V60.66a5.714,5.714,0,0,1,5.708-5.707h193.1a5.714,5.714,0,0,1,5.707,5.707V332.092A5.715,5.715,0,0,1,237.014,337.8ZM43.915,55.2a5.463,5.463,0,0,0-5.458,5.457V332.092a5.464,5.464,0,0,0,5.458,5.458h193.1a5.463,5.463,0,0,0,5.457-5.458V60.66a5.463,5.463,0,0,0-5.457-5.457Z" transform="translate(0 -54.953)" fill="#ebebeb"/>
      <path id="Path_2" data-name="Path 2" d="M453.311,337.8h-193.1a5.714,5.714,0,0,1-5.707-5.708V60.66a5.713,5.713,0,0,1,5.707-5.707h193.1a5.714,5.714,0,0,1,5.708,5.707V332.092A5.715,5.715,0,0,1,453.311,337.8ZM260.212,55.2a5.463,5.463,0,0,0-5.457,5.457V332.092a5.463,5.463,0,0,0,5.457,5.458h193.1a5.464,5.464,0,0,0,5.458-5.458V60.66a5.464,5.464,0,0,0-5.458-5.457Z" transform="translate(-46.89 -54.953)" fill="#ebebeb"/>
      <rect id="Rectangle_7" data-name="Rectangle 7" width="453.11" height="0.25" transform="translate(0 327.445)" fill="#ebebeb"/>
    </g>
    <g id="Group_7" data-name="Group 7" transform="translate(74.325 86.731)">
      <g id="Group_4" data-name="Group 4" transform="translate(179.555)">
        <rect id="Rectangle_8" data-name="Rectangle 8" width="124.785" height="132.891" transform="translate(8.932 7.938)" fill="#ebebeb"/>
        <rect id="Rectangle_9" data-name="Rectangle 9" width="109.786" height="117.892" transform="translate(16.432 15.437)" fill="#f5f5f5"/>
        <g id="Group_2" data-name="Group 2" transform="translate(44.191 15.437)">
          <path id="Path_3" data-name="Path 3" d="M342.55,220.06h33l30.981-117.892h-33Z" transform="translate(-327.217 -102.169)" fill="#fafafa"/>
          <path id="Path_4" data-name="Path 4" d="M358.2,102.169,327.217,220.06h8L366.2,102.169Z" transform="translate(-327.217 -102.169)" fill="#fafafa"/>
        </g>
        <g id="Group_3" data-name="Group 3">
          <path id="Path_5" data-name="Path 5" d="M418.325,100.922H290.375l-2.7-6.3h133.35Z" transform="translate(-283.025 -86.731)" fill="#f5f5f5"/>
          <path id="Path_6" data-name="Path 6" d="M418.325,104.571H290.375l-2.7-6.3h133.35Z" transform="translate(-283.025 -86.731)" fill="#f0f0f0"/>
          <path id="Path_7" data-name="Path 7" d="M418.325,108.221H290.375l-2.7-6.3h133.35Z" transform="translate(-283.025 -86.731)" fill="#e6e6e6"/>
          <path id="Path_8" data-name="Path 8" d="M418.325,111.87H290.375l-2.7-6.3h133.35Z" transform="translate(-283.025 -86.731)" fill="#e0e0e0"/>
          <rect id="Rectangle_10" data-name="Rectangle 10" width="142.65" height="8.401" fill="#e0e0e0"/>
          <path id="Path_9" data-name="Path 9" d="M284.49,171.292h0a1.452,1.452,0,0,1-1.452-1.452V120.847a1.452,1.452,0,0,1,1.452-1.452h0a1.452,1.452,0,0,1,1.451,1.452V169.84a1.452,1.452,0,0,1-1.451,1.452Z" transform="translate(-283.025 -86.731)" fill="#e0e0e0"/>
          <rect id="Rectangle_11" data-name="Rectangle 11" width="1.05" height="29.098" transform="translate(0.939 6.716)" fill="#e0e0e0"/>
        </g>
      </g>
      <g id="Group_6" data-name="Group 6">
        <g id="Group_5" data-name="Group 5" transform="translate(14.4 5.365)">
          <rect id="Rectangle_12" data-name="Rectangle 12" width="1.8" height="140.366" fill="#e0e0e0"/>
          <rect id="Rectangle_13" data-name="Rectangle 13" width="1.8" height="140.366" transform="translate(112.05)" fill="#e0e0e0"/>
        </g>
        <path id="Path_10" data-name="Path 10" d="M209.625,100.922H81.675l-2.7-6.3h133.35Z" transform="translate(-74.325 -86.731)" fill="#f5f5f5"/>
        <path id="Path_11" data-name="Path 11" d="M209.625,109.571H81.675l-2.7-6.3h133.35Z" transform="translate(-74.325 -86.731)" fill="#f5f5f5"/>
        <path id="Path_12" data-name="Path 12" d="M209.625,118.221H81.675l-2.7-6.3h133.35Z" transform="translate(-74.325 -86.731)" fill="#f5f5f5"/>
        <path id="Path_13" data-name="Path 13" d="M209.625,126.87H81.675l-2.7-6.3h133.35Z" transform="translate(-74.325 -86.731)" fill="#f5f5f5"/>
        <path id="Path_14" data-name="Path 14" d="M209.625,135.519H81.675l-2.7-6.3h133.35Z" transform="translate(-74.325 -86.731)" fill="#f5f5f5"/>
        <path id="Path_15" data-name="Path 15" d="M209.625,144.169H81.675l-2.7-6.3h133.35Z" transform="translate(-74.325 -86.731)" fill="#f5f5f5"/>
        <path id="Path_16" data-name="Path 16" d="M209.625,152.818H81.675l-2.7-6.3h133.35Z" transform="translate(-74.325 -86.731)" fill="#f5f5f5"/>
        <path id="Path_17" data-name="Path 17" d="M209.625,161.467H81.675l-2.7-6.3h133.35Z" transform="translate(-74.325 -86.731)" fill="#f5f5f5"/>
        <path id="Path_18" data-name="Path 18" d="M209.625,170.117H81.675l-2.7-6.3h133.35Z" transform="translate(-74.325 -86.731)" fill="#f5f5f5"/>
        <path id="Path_19" data-name="Path 19" d="M209.625,178.766H81.675l-2.7-6.3h133.35Z" transform="translate(-74.325 -86.731)" fill="#f5f5f5"/>
        <path id="Path_20" data-name="Path 20" d="M209.625,187.416H81.675l-2.7-6.3h133.35Z" transform="translate(-74.325 -86.731)" fill="#f5f5f5"/>
        <path id="Path_21" data-name="Path 21" d="M209.625,196.065H81.675l-2.7-6.3h133.35Z" transform="translate(-74.325 -86.731)" fill="#f5f5f5"/>
        <path id="Path_22" data-name="Path 22" d="M209.625,204.714H81.675l-2.7-6.3h133.35Z" transform="translate(-74.325 -86.731)" fill="#f5f5f5"/>
        <path id="Path_23" data-name="Path 23" d="M209.625,213.364H81.675l-2.7-6.3h133.35Z" transform="translate(-74.325 -86.731)" fill="#f5f5f5"/>
        <path id="Path_24" data-name="Path 24" d="M209.625,222.013H81.675l-2.7-6.3h133.35Z" transform="translate(-74.325 -86.731)" fill="#f5f5f5"/>
        <path id="Path_25" data-name="Path 25" d="M209.625,230.663H81.675l-2.7-6.3h133.35Z" transform="translate(-74.325 -86.731)" fill="#f5f5f5"/>
        <rect id="Rectangle_14" data-name="Rectangle 14" width="133.35" height="3.6" transform="translate(4.65 143.931)" fill="#e0e0e0"/>
        <rect id="Rectangle_15" data-name="Rectangle 15" width="142.65" height="8.401" fill="#e0e0e0"/>
        <path id="Path_26" data-name="Path 26" d="M75.789,171.292h0a1.452,1.452,0,0,1-1.451-1.452V120.847a1.452,1.452,0,0,1,1.451-1.452h0a1.452,1.452,0,0,1,1.452,1.452V169.84a1.452,1.452,0,0,1-1.452,1.452Z" transform="translate(-74.325 -86.731)" fill="#e0e0e0"/>
        <rect id="Rectangle_16" data-name="Rectangle 16" width="1.05" height="29.098" transform="translate(0.939 6.716)" fill="#e0e0e0"/>
      </g>
    </g>
    <g id="Group_12" data-name="Group 12" transform="translate(48.447 246.707)">
      <g id="Group_8" data-name="Group 8">
        <path id="Path_27" data-name="Path 27" d="M89.317,322.377c-.122.137.552,1.076-2.188.665-6.748-1.015-18.5-3.748-21.771-10.692-4.672-9.914,9.813-6.3,9.313-11.362S57.691,296.8,55.94,289.371s9.429-3.893,9.577-7.516-12.731-1.374-15.288-9.393,7.178-2.116,6.059-5.45S44.273,248.6,50.2,246.845s15.916,13.726,19.771,15.919,7.278-10.439,11.872-5.106-2.692,23.994,3.168,27.615c4.364,2.7,3.131-4.732,8.891-3.346C101.729,283.811,99.1,311.438,89.317,322.377Z" transform="translate(-48.447 -246.707)" fill="#ebebeb"/>
        <path id="Path_28" data-name="Path 28" d="M68.488,281.9a23.132,23.132,0,0,1,5.832,1.2,43.992,43.992,0,0,0-4.15-5.331.5.5,0,0,1,.712-.7,58.847,58.847,0,0,1,8.312,12.059c2.121-12.787-3.234-23.964-3.29-24.079a.375.375,0,0,1,.674-.33c.059.12,5.775,12.048,3.184,25.467.69,1.316,1.385,2.723,2.072,4.236a94.489,94.489,0,0,1,5.7,16.713,34.328,34.328,0,0,0,3.984-15.263.375.375,0,0,1,.749.023,34.5,34.5,0,0,1-4.473,16.289,116.537,116.537,0,0,1,2.539,34.457.5.5,0,0,1-.534.465.607.607,0,0,1-.062-.009.5.5,0,0,1-.4-.524c1.238-17.972-1.45-32.417-5.169-43.356a13.737,13.737,0,0,0-7.979-4.552.393.393,0,0,1-.312-.429.376.376,0,0,1,.428-.313,14.113,14.113,0,0,1,7.278,3.617,83.592,83.592,0,0,0-8.526-17.34,20.636,20.636,0,0,0-6.632-1.555.383.383,0,0,1-.342-.406.375.375,0,0,1,.4-.339Z" transform="translate(-48.447 -246.707)" fill="#f5f5f5"/>
      </g>
      <g id="Group_11" data-name="Group 11" transform="translate(45.508 19.546)">
        <g id="Group_10" data-name="Group 10" transform="translate(0.058)">
          <path id="Path_29" data-name="Path 29" d="M97.964,326.206c5.607.106,15.186-5.1,18.946-10.168,3.816-5.141-6.918-1.952-5.815-5.989s14.336-1.053,16.778-6.836-7.106-4.453-6.727-7.408,10.271-2.356,13.446-8.5-5.525-2.7-4.16-5.251,12.272-13.269,7.708-15.5-14.788,8.932-18.213,10.178-4.226-6.467-8.683-2.777-1.121,19.814-6.368,21.942c-3.907,1.584-2.245-5.8-6.744-3.935C90.256,295.217,95.687,326.162,97.964,326.206Z" transform="translate(-94.013 -266.253)" fill="#e0e0e0"/>
          <g id="Group_9" data-name="Group 9" opacity="0.3">
            <path id="Path_30" data-name="Path 30" d="M97.964,326.206c5.607.106,15.186-5.1,18.946-10.168,3.816-5.141-6.918-1.952-5.815-5.989s14.336-1.053,16.778-6.836-7.106-4.453-6.727-7.408,10.271-2.356,13.446-8.5-5.525-2.7-4.16-5.251,12.272-13.269,7.708-15.5-14.788,8.932-18.213,10.178-4.226-6.467-8.683-2.777-1.121,19.814-6.368,21.942c-3.907,1.584-2.245-5.8-6.744-3.935C90.256,295.217,95.687,326.162,97.964,326.206Z" transform="translate(-94.013 -266.253)" fill="#e0e0e0"/>
          </g>
        </g>
        <path id="Path_31" data-name="Path 31" d="M99.816,319.475a.355.355,0,0,1-.2-.164A29.5,29.5,0,0,1,97.1,304.278a.375.375,0,0,1,.748.059,29.972,29.972,0,0,0,2.27,14.287,115.051,115.051,0,0,1,8.54-18.065c-.992-12.042,5.178-21.9,5.241-22a.375.375,0,1,1,.633.4,38.954,38.954,0,0,0-5.2,20.437,105.079,105.079,0,0,1,14.343-19.171.5.5,0,1,1,.7.715,97.455,97.455,0,0,0-10.945,13.839,29.362,29.362,0,0,1,10.6-1.867.375.375,0,0,1-.008.75h-.007a28.78,28.78,0,0,0-11.308,2.2,119.371,119.371,0,0,0-6.1,10.494,12.68,12.68,0,0,1,10.462-1.843.375.375,0,0,1,.267.458.371.371,0,0,1-.458.267,12.089,12.089,0,0,0-11.058,2.674,101.554,101.554,0,0,0-10.87,41.114.5.5,0,0,1-.5.481h-.02a.5.5,0,0,1-.48-.52,98.677,98.677,0,0,1,5.866-29.512Z" transform="translate(-93.955 -266.253)" fill="#f5f5f5"/>
      </g>
      <path id="Path_32" data-name="Path 32" d="M82.193,380.983C76.84,370.918,73.324,356.375,73.324,350a17.8,17.8,0,0,1,6.536-13.61h27.411A17.8,17.8,0,0,1,113.807,350c0,6.374-3.517,20.917-8.87,30.982Z" transform="translate(-48.447 -246.707)" fill="#f0f0f0"/>
    </g>
  </g>
  <g id="Shadow" transform="translate(0 -71.569)">
    <ellipse id="_Path_" data-name="&lt;Path&gt;" cx="177.32" cy="11.323" rx="177.32" ry="11.323" transform="translate(51.289 401.068)" fill="#f5f5f5"/>
  </g>
  <g id="Screen" transform="translate(0 -54.953)">
    <g id="Group_35" data-name="Group 35">
      <g id="Group_14" data-name="Group 14" transform="translate(1)">
        <path id="Path_35" data-name="Path 35" d="M292.652,119.641H268.669a3.481,3.481,0,0,0-3.334,2.726l-.162.751a8.5,8.5,0,0,1-8.142,6.656h-22.8a6.847,6.847,0,0,1-6.978-6.656l-.03-.751a2.8,2.8,0,0,0-2.857-2.726H200.382a16.123,16.123,0,0,0-15.75,14.483L165.337,354.662a13.059,13.059,0,0,0,13.216,14.483h92.271a16.124,16.124,0,0,0,15.75-14.483l19.294-220.538a13.059,13.059,0,0,0-13.216-14.483Z" fill="#407bff"/>
        <path id="Path_36" data-name="Path 36" d="M292.652,119.641H268.669a3.481,3.481,0,0,0-3.334,2.726l-.162.751a8.5,8.5,0,0,1-8.142,6.656h-22.8a6.847,6.847,0,0,1-6.978-6.656l-.03-.751a2.8,2.8,0,0,0-2.857-2.726H200.382a16.123,16.123,0,0,0-15.75,14.483L165.337,354.662a13.059,13.059,0,0,0,13.216,14.483h92.271a16.124,16.124,0,0,0,15.75-14.483l19.294-220.538a13.059,13.059,0,0,0-13.216-14.483Z" fill="#fff" opacity="0.7"/>
      </g>
      <g id="Group_27" data-name="Group 27" transform="translate(57.39 -93.778)">
        <g id="Group_17" data-name="Group 17" transform="translate(181.643 299.171)">
          <path id="Path_44" data-name="Path 44" d="M210.859,300.743h-28.5a.709.709,0,0,1-.717-.786h0a.875.875,0,0,1,.855-.786H211a.709.709,0,0,1,.717.786h0A.875.875,0,0,1,210.859,300.743Z" transform="translate(-181.643 -299.171)" fill="#fff"/>
        </g>
        <g id="Group_18" data-name="Group 18" transform="translate(215.179 299.171)">
          <path id="Path_45" data-name="Path 45" d="M235.472,300.743H215.633c-.281,0-.49-.352-.466-.786h0c.025-.434.273-.786.554-.786h19.84c.281,0,.49.352.465.786h0C236,300.391,235.753,300.743,235.472,300.743Z" transform="translate(-215.165 -299.171)" fill="#fff"/>
        </g>
        <g id="Group_19" data-name="Group 19" transform="translate(181.035 305.424)">
          <path id="Path_46" data-name="Path 46" d="M201.033,307.687H181.756a.709.709,0,0,1-.718-.786h0a.875.875,0,0,1,.855-.786h19.278a.709.709,0,0,1,.717.786h0a.875.875,0,0,1-.855.786Z" transform="translate(-181.035 -306.115)" fill="#fff"/>
        </g>
        <g id="Group_20" data-name="Group 20" transform="translate(206.913 305.424)">
          <path id="Path_47" data-name="Path 47" d="M225.1,307.687H205.779c-.266,0-.463-.352-.439-.786h0c.023-.434.258-.786.523-.786h19.323c.266,0,.463.352.439.786h0C225.6,307.335,225.367,307.687,225.1,307.687Z" transform="translate(-205.338 -306.115)" fill="#fff"/>
        </g>
        <g id="Group_21" data-name="Group 21" transform="translate(180.428 311.676)">
          <path id="Path_48" data-name="Path 48" d="M232.54,314.631H181.148a.708.708,0,0,1-.717-.786h0a.875.875,0,0,1,.855-.786h51.392a.709.709,0,0,1,.717.786h0a.875.875,0,0,1-.855.786Z" transform="translate(-180.428 -313.059)" fill="#fff"/>
        </g>
        <g id="Group_22" data-name="Group 22" transform="translate(225.553 311.676)">
          <path id="Path_49" data-name="Path 49" d="M240.96,314.631h-3.393a.708.708,0,0,1-.718-.786h0a.875.875,0,0,1,.855-.786h3.4a.709.709,0,0,1,.718.786h0A.875.875,0,0,1,240.96,314.631Z" transform="translate(-236.846 -313.059)" fill="#fff"/>
        </g>
        <g id="Group_23" data-name="Group 23" transform="translate(179.82 317.93)">
          <path id="Path_50" data-name="Path 50" d="M204.535,321.576H180.541a.708.708,0,0,1-.718-.786h0a.875.875,0,0,1,.855-.786h23.994a.709.709,0,0,1,.718.786h0a.875.875,0,0,1-.855.786Z" transform="translate(-179.82 -320.004)" fill="#fff"/>
        </g>
        <g id="Group_24" data-name="Group 24" transform="translate(197.547 317.93)">
          <path id="Path_51" data-name="Path 51" d="M226.995,321.576H209.268c-.258,0-.449-.351-.426-.786h0c.023-.434.25-.786.507-.786h17.728c.258,0,.448.352.425.786h0C227.48,321.225,227.252,321.576,226.995,321.576Z" transform="translate(-196.051 -320.004)" fill="#fff"/>
        </g>
        <g id="Group_25" data-name="Group 25" transform="translate(179.213 324.182)">
          <path id="Path_52" data-name="Path 52" d="M196.2,328.521H179.617c-.244,0-.424-.352-.4-.786h0c.021-.435.236-.787.48-.787h16.581c.244,0,.424.352.4.787h0C196.657,328.169,196.442,328.521,196.2,328.521Z" transform="translate(-179.213 -326.948)" fill="#fff"/>
        </g>
        <g id="Group_26" data-name="Group 26" transform="translate(202.49 324.182)">
          <path id="Path_53" data-name="Path 53" d="M238.3,328.521H214.5a.709.709,0,0,1-.718-.786h0a.876.876,0,0,1,.855-.787h23.8a.71.71,0,0,1,.718.787h0a.875.875,0,0,1-.855.786Z" transform="translate(-213.783 -326.948)" fill="#fff"/>
        </g>
      </g>
      <g id="Group_100" data-name="Group 100" transform="translate(0.56 -101.778)">
        <g id="Group_17-2" data-name="Group 17" transform="translate(181.643 299.171)">
          <path id="Path_44-2" data-name="Path 44" d="M210.859,300.743h-28.5a.709.709,0,0,1-.717-.786h0a.875.875,0,0,1,.855-.786H211a.709.709,0,0,1,.717.786h0A.875.875,0,0,1,210.859,300.743Z" transform="translate(-181.643 -299.171)" fill="#fff"/>
        </g>
        <g id="Group_18-2" data-name="Group 18" transform="translate(215.179 299.171)">
          <path id="Path_45-2" data-name="Path 45" d="M235.472,300.743H215.633c-.281,0-.49-.352-.466-.786h0c.025-.434.273-.786.554-.786h19.84c.281,0,.49.352.465.786h0C236,300.391,235.753,300.743,235.472,300.743Z" transform="translate(-215.165 -299.171)" fill="#fff"/>
        </g>
        <g id="Group_19-2" data-name="Group 19" transform="translate(181.035 305.424)">
          <path id="Path_46-2" data-name="Path 46" d="M201.033,307.687H181.756a.709.709,0,0,1-.718-.786h0a.875.875,0,0,1,.855-.786h19.278a.709.709,0,0,1,.717.786h0a.875.875,0,0,1-.855.786Z" transform="translate(-181.035 -306.115)" fill="#fff"/>
        </g>
        <g id="Group_20-2" data-name="Group 20" transform="translate(206.913 305.424)">
          <path id="Path_47-2" data-name="Path 47" d="M225.1,307.687H205.779c-.266,0-.463-.352-.439-.786h0c.023-.434.258-.786.523-.786h19.323c.266,0,.463.352.439.786h0C225.6,307.335,225.367,307.687,225.1,307.687Z" transform="translate(-205.338 -306.115)" fill="#fff"/>
        </g>
        <g id="Group_21-2" data-name="Group 21" transform="translate(180.428 311.676)">
          <path id="Path_48-2" data-name="Path 48" d="M232.54,314.631H181.148a.708.708,0,0,1-.717-.786h0a.875.875,0,0,1,.855-.786h51.392a.709.709,0,0,1,.717.786h0a.875.875,0,0,1-.855.786Z" transform="translate(-180.428 -313.059)" fill="#fff"/>
        </g>
        <g id="Group_22-2" data-name="Group 22" transform="translate(225.553 311.676)">
          <path id="Path_49-2" data-name="Path 49" d="M240.96,314.631h-3.393a.708.708,0,0,1-.718-.786h0a.875.875,0,0,1,.855-.786h3.4a.709.709,0,0,1,.718.786h0A.875.875,0,0,1,240.96,314.631Z" transform="translate(-236.846 -313.059)" fill="#fff"/>
        </g>
        <g id="Group_23-2" data-name="Group 23" transform="translate(179.82 317.93)">
          <path id="Path_50-2" data-name="Path 50" d="M204.535,321.576H180.541a.708.708,0,0,1-.718-.786h0a.875.875,0,0,1,.855-.786h23.994a.709.709,0,0,1,.718.786h0a.875.875,0,0,1-.855.786Z" transform="translate(-179.82 -320.004)" fill="#fff"/>
        </g>
        <g id="Group_24-2" data-name="Group 24" transform="translate(197.547 317.93)">
          <path id="Path_51-2" data-name="Path 51" d="M226.995,321.576H209.268c-.258,0-.449-.351-.426-.786h0c.023-.434.25-.786.507-.786h17.728c.258,0,.448.352.425.786h0C227.48,321.225,227.252,321.576,226.995,321.576Z" transform="translate(-196.051 -320.004)" fill="#fff"/>
        </g>
        <g id="Group_25-2" data-name="Group 25" transform="translate(179.213 324.182)">
          <path id="Path_52-2" data-name="Path 52" d="M196.2,328.521H179.617c-.244,0-.424-.352-.4-.786h0c.021-.435.236-.787.48-.787h16.581c.244,0,.424.352.4.787h0C196.657,328.169,196.442,328.521,196.2,328.521Z" transform="translate(-179.213 -326.948)" fill="#fff"/>
        </g>
        <g id="Group_26-2" data-name="Group 26" transform="translate(202.49 324.182)">
          <path id="Path_53-2" data-name="Path 53" d="M238.3,328.521H214.5a.709.709,0,0,1-.718-.786h0a.876.876,0,0,1,.855-.787h23.8a.71.71,0,0,1,.718.787h0a.875.875,0,0,1-.855.786Z" transform="translate(-213.783 -326.948)" fill="#fff"/>
        </g>
      </g>
      <g id="Group_103" data-name="Group 103" transform="translate(-4.61 -2.778)">
        <g id="Group_17-3" data-name="Group 17" transform="translate(181.643 299.171)">
          <path id="Path_44-3" data-name="Path 44" d="M210.859,300.743h-28.5a.709.709,0,0,1-.717-.786h0a.875.875,0,0,1,.855-.786H211a.709.709,0,0,1,.717.786h0A.875.875,0,0,1,210.859,300.743Z" transform="translate(-181.643 -299.171)" fill="#fff"/>
        </g>
        <g id="Group_18-3" data-name="Group 18" transform="translate(215.179 299.171)">
          <path id="Path_45-3" data-name="Path 45" d="M235.472,300.743H215.633c-.281,0-.49-.352-.466-.786h0c.025-.434.273-.786.554-.786h19.84c.281,0,.49.352.465.786h0C236,300.391,235.753,300.743,235.472,300.743Z" transform="translate(-215.165 -299.171)" fill="#fff"/>
        </g>
        <g id="Group_19-3" data-name="Group 19" transform="translate(181.035 305.424)">
          <path id="Path_46-3" data-name="Path 46" d="M201.033,307.687H181.756a.709.709,0,0,1-.718-.786h0a.875.875,0,0,1,.855-.786h19.278a.709.709,0,0,1,.717.786h0a.875.875,0,0,1-.855.786Z" transform="translate(-181.035 -306.115)" fill="#fff"/>
        </g>
        <g id="Group_20-3" data-name="Group 20" transform="translate(206.913 305.424)">
          <path id="Path_47-3" data-name="Path 47" d="M225.1,307.687H205.779c-.266,0-.463-.352-.439-.786h0c.023-.434.258-.786.523-.786h19.323c.266,0,.463.352.439.786h0C225.6,307.335,225.367,307.687,225.1,307.687Z" transform="translate(-205.338 -306.115)" fill="#fff"/>
        </g>
        <g id="Group_21-3" data-name="Group 21" transform="translate(180.428 311.676)">
          <path id="Path_48-3" data-name="Path 48" d="M232.54,314.631H181.148a.708.708,0,0,1-.717-.786h0a.875.875,0,0,1,.855-.786h51.392a.709.709,0,0,1,.717.786h0a.875.875,0,0,1-.855.786Z" transform="translate(-180.428 -313.059)" fill="#fff"/>
        </g>
        <g id="Group_22-3" data-name="Group 22" transform="translate(225.553 311.676)">
          <path id="Path_49-3" data-name="Path 49" d="M240.96,314.631h-3.393a.708.708,0,0,1-.718-.786h0a.875.875,0,0,1,.855-.786h3.4a.709.709,0,0,1,.718.786h0A.875.875,0,0,1,240.96,314.631Z" transform="translate(-236.846 -313.059)" fill="#fff"/>
        </g>
        <g id="Group_23-3" data-name="Group 23" transform="translate(179.82 317.93)">
          <path id="Path_50-3" data-name="Path 50" d="M204.535,321.576H180.541a.708.708,0,0,1-.718-.786h0a.875.875,0,0,1,.855-.786h23.994a.709.709,0,0,1,.718.786h0a.875.875,0,0,1-.855.786Z" transform="translate(-179.82 -320.004)" fill="#fff"/>
        </g>
        <g id="Group_24-3" data-name="Group 24" transform="translate(197.547 317.93)">
          <path id="Path_51-3" data-name="Path 51" d="M226.995,321.576H209.268c-.258,0-.449-.351-.426-.786h0c.023-.434.25-.786.507-.786h17.728c.258,0,.448.352.425.786h0C227.48,321.225,227.252,321.576,226.995,321.576Z" transform="translate(-196.051 -320.004)" fill="#fff"/>
        </g>
        <g id="Group_25-3" data-name="Group 25" transform="translate(179.213 324.182)">
          <path id="Path_52-3" data-name="Path 52" d="M196.2,328.521H179.617c-.244,0-.424-.352-.4-.786h0c.021-.435.236-.787.48-.787h16.581c.244,0,.424.352.4.787h0C196.657,328.169,196.442,328.521,196.2,328.521Z" transform="translate(-179.213 -326.948)" fill="#fff"/>
        </g>
        <g id="Group_26-3" data-name="Group 26" transform="translate(202.49 324.182)">
          <path id="Path_53-3" data-name="Path 53" d="M238.3,328.521H214.5a.709.709,0,0,1-.718-.786h0a.876.876,0,0,1,.855-.787h23.8a.71.71,0,0,1,.718.787h0a.875.875,0,0,1-.855.786Z" transform="translate(-213.783 -326.948)" fill="#fff"/>
        </g>
      </g>
      <g id="Group_104" data-name="Group 104" transform="translate(52.22 -2.778)">
        <g id="Group_17-4" data-name="Group 17" transform="translate(181.643 299.171)">
          <path id="Path_44-4" data-name="Path 44" d="M210.859,300.743h-28.5a.709.709,0,0,1-.717-.786h0a.875.875,0,0,1,.855-.786H211a.709.709,0,0,1,.717.786h0A.875.875,0,0,1,210.859,300.743Z" transform="translate(-181.643 -299.171)" fill="#fff"/>
        </g>
        <g id="Group_18-4" data-name="Group 18" transform="translate(215.179 299.171)">
          <path id="Path_45-4" data-name="Path 45" d="M235.472,300.743H215.633c-.281,0-.49-.352-.466-.786h0c.025-.434.273-.786.554-.786h19.84c.281,0,.49.352.465.786h0C236,300.391,235.753,300.743,235.472,300.743Z" transform="translate(-215.165 -299.171)" fill="#fff"/>
        </g>
        <g id="Group_19-4" data-name="Group 19" transform="translate(181.035 305.424)">
          <path id="Path_46-4" data-name="Path 46" d="M201.033,307.687H181.756a.709.709,0,0,1-.718-.786h0a.875.875,0,0,1,.855-.786h19.278a.709.709,0,0,1,.717.786h0a.875.875,0,0,1-.855.786Z" transform="translate(-181.035 -306.115)" fill="#fff"/>
        </g>
        <g id="Group_20-4" data-name="Group 20" transform="translate(206.913 305.424)">
          <path id="Path_47-4" data-name="Path 47" d="M225.1,307.687H205.779c-.266,0-.463-.352-.439-.786h0c.023-.434.258-.786.523-.786h19.323c.266,0,.463.352.439.786h0C225.6,307.335,225.367,307.687,225.1,307.687Z" transform="translate(-205.338 -306.115)" fill="#fff"/>
        </g>
        <g id="Group_21-4" data-name="Group 21" transform="translate(180.428 311.676)">
          <path id="Path_48-4" data-name="Path 48" d="M232.54,314.631H181.148a.708.708,0,0,1-.717-.786h0a.875.875,0,0,1,.855-.786h51.392a.709.709,0,0,1,.717.786h0a.875.875,0,0,1-.855.786Z" transform="translate(-180.428 -313.059)" fill="#fff"/>
        </g>
        <g id="Group_22-4" data-name="Group 22" transform="translate(225.553 311.676)">
          <path id="Path_49-4" data-name="Path 49" d="M240.96,314.631h-3.393a.708.708,0,0,1-.718-.786h0a.875.875,0,0,1,.855-.786h3.4a.709.709,0,0,1,.718.786h0A.875.875,0,0,1,240.96,314.631Z" transform="translate(-236.846 -313.059)" fill="#fff"/>
        </g>
        <g id="Group_23-4" data-name="Group 23" transform="translate(179.82 317.93)">
          <path id="Path_50-4" data-name="Path 50" d="M204.535,321.576H180.541a.708.708,0,0,1-.718-.786h0a.875.875,0,0,1,.855-.786h23.994a.709.709,0,0,1,.718.786h0a.875.875,0,0,1-.855.786Z" transform="translate(-179.82 -320.004)" fill="#fff"/>
        </g>
        <g id="Group_24-4" data-name="Group 24" transform="translate(197.547 317.93)">
          <path id="Path_51-4" data-name="Path 51" d="M226.995,321.576H209.268c-.258,0-.449-.351-.426-.786h0c.023-.434.25-.786.507-.786h17.728c.258,0,.448.352.425.786h0C227.48,321.225,227.252,321.576,226.995,321.576Z" transform="translate(-196.051 -320.004)" fill="#fff"/>
        </g>
        <g id="Group_25-4" data-name="Group 25" transform="translate(179.213 324.182)">
          <path id="Path_52-4" data-name="Path 52" d="M196.2,328.521H179.617c-.244,0-.424-.352-.4-.786h0c.021-.435.236-.787.48-.787h16.581c.244,0,.424.352.4.787h0C196.657,328.169,196.442,328.521,196.2,328.521Z" transform="translate(-179.213 -326.948)" fill="#fff"/>
        </g>
        <g id="Group_26-4" data-name="Group 26" transform="translate(202.49 324.182)">
          <path id="Path_53-4" data-name="Path 53" d="M238.3,328.521H214.5a.709.709,0,0,1-.718-.786h0a.876.876,0,0,1,.855-.787h23.8a.71.71,0,0,1,.718.787h0a.875.875,0,0,1-.855.786Z" transform="translate(-213.783 -326.948)" fill="#fff"/>
        </g>
      </g>
    </g>
  </g>
  <g id="Icons" transform="translate(0 -54.953)">
    <g id="Group_36" data-name="Group 36">
      <path id="Path_60" data-name="Path 60" d="M165.743,114.845H152.79a4.755,4.755,0,0,0-4.756,4.756v12.952a4.756,4.756,0,0,0,4.756,4.756h12.953a4.755,4.755,0,0,0,4.755-4.756V119.6A4.755,4.755,0,0,0,165.743,114.845Zm-6.477,4.6c1.955,0,3.006,1.585,3.006,3.54s-1.051,3.539-3.006,3.539-3.006-1.584-3.006-3.539,1.051-3.543,3.006-3.543Zm7.819,13.269H151.448a.475.475,0,0,1-.335-.138l1-2.738a4.471,4.471,0,0,1,4.2-2.933h5.9a4.472,4.472,0,0,1,4.2,2.933l1,2.738a.474.474,0,0,1-.328.135Z" fill="#407bff"/>
      <path id="Path_61" data-name="Path 61" d="M165.743,114.845H152.79a4.755,4.755,0,0,0-4.756,4.756v12.952a4.756,4.756,0,0,0,4.756,4.756h12.953a4.755,4.755,0,0,0,4.755-4.756V119.6A4.755,4.755,0,0,0,165.743,114.845Zm-6.477,4.6c1.955,0,3.006,1.585,3.006,3.54s-1.051,3.539-3.006,3.539-3.006-1.584-3.006-3.539,1.051-3.543,3.006-3.543Zm7.819,13.269H151.448a.475.475,0,0,1-.335-.138l1-2.738a4.471,4.471,0,0,1,4.2-2.933h5.9a4.472,4.472,0,0,1,4.2,2.933l1,2.738a.474.474,0,0,1-.328.135Z" fill="#fff" opacity="0.7"/>
    </g>
    <g id="Group_39" data-name="Group 39">
      <g id="Group_37" data-name="Group 37">
        <path id="Path_62" data-name="Path 62" d="M119.658,168.117h-9.842a6.406,6.406,0,0,0-6.406,6.406v9.842a6.406,6.406,0,0,0,6.406,6.406h9.842a6.406,6.406,0,0,0,6.407-6.407v-9.841a6.406,6.406,0,0,0-6.407-6.406Zm-4.921,16.7s-4.043-4.4-4.043-6.631a4.044,4.044,0,1,1,8.087,0c0,2.231-4.044,6.629-4.044,6.629Z" fill="#407bff"/>
        <path id="Path_63" data-name="Path 63" d="M114.737,176.339a1.845,1.845,0,1,0,1.845,1.845A1.845,1.845,0,0,0,114.737,176.339Z" fill="#407bff"/>
      </g>
      <g id="Group_38" data-name="Group 38" opacity="0.7">
        <path id="Path_64" data-name="Path 64" d="M119.658,168.117h-9.842a6.406,6.406,0,0,0-6.406,6.406v9.842a6.406,6.406,0,0,0,6.406,6.406h9.842a6.406,6.406,0,0,0,6.407-6.407v-9.841a6.406,6.406,0,0,0-6.407-6.406Zm-4.921,16.7s-4.043-4.4-4.043-6.631a4.044,4.044,0,1,1,8.087,0c0,2.231-4.044,6.629-4.044,6.629Z" fill="#fff"/>
        <path id="Path_65" data-name="Path 65" d="M114.737,176.339a1.845,1.845,0,1,0,1.845,1.845A1.845,1.845,0,0,0,114.737,176.339Z" fill="#fff"/>
      </g>
    </g>
    <g id="Group_42" data-name="Group 42">
      <g id="Group_40" data-name="Group 40">
        <path id="Path_66" data-name="Path 66" d="M335.7,140.234l6.592-4.267L335.7,131.7Z" fill="#407bff"/>
        <path id="Path_67" data-name="Path 67" d="M344.191,124.338H331.634a5.351,5.351,0,0,0-5.351,5.351v12.557a5.351,5.351,0,0,0,5.351,5.351h12.557a5.351,5.351,0,0,0,5.351-5.351V129.689A5.351,5.351,0,0,0,344.191,124.338Zm-6.278,19.994a8.365,8.365,0,1,1,8.364-8.365,8.365,8.365,0,0,1-8.364,8.365Z" fill="#407bff"/>
      </g>
      <g id="Group_41" data-name="Group 41" opacity="0.7">
        <path id="Path_68" data-name="Path 68" d="M335.7,140.234l6.592-4.267L335.7,131.7Z" fill="#fff"/>
        <path id="Path_69" data-name="Path 69" d="M344.191,124.338H331.634a5.351,5.351,0,0,0-5.351,5.351v12.557a5.351,5.351,0,0,0,5.351,5.351h12.557a5.351,5.351,0,0,0,5.351-5.351V129.689A5.351,5.351,0,0,0,344.191,124.338Zm-6.278,19.994a8.365,8.365,0,1,1,8.364-8.365,8.365,8.365,0,0,1-8.364,8.365Z" fill="#fff"/>
      </g>
    </g>
  </g>
  <g id="Gears" transform="translate(0 -54.953)">
    <g id="Group_43" data-name="Group 43">
      <path id="Path_70" data-name="Path 70" d="M356.518,172.511c0-.26-.014-.516-.036-.77l1.509-.839a10.2,10.2,0,0,0-.561-2.093l-1.724.029a8.651,8.651,0,0,0-.772-1.334l.887-1.478a10.336,10.336,0,0,0-1.533-1.533l-1.479.886a8.721,8.721,0,0,0-1.333-.771l.028-1.724a10.231,10.231,0,0,0-2.093-.562l-.838,1.51c-.254-.023-.51-.036-.77-.036s-.516.013-.77.036l-.838-1.51a10.232,10.232,0,0,0-2.093.562l.028,1.724a8.726,8.726,0,0,0-1.333.771l-1.479-.886a10.337,10.337,0,0,0-1.533,1.533l.887,1.478a8.654,8.654,0,0,0-.772,1.334l-1.724-.029a10.2,10.2,0,0,0-.561,2.093l1.509.839c-.022.254-.036.51-.036.77s.014.516.036.77l-1.509.838a10.168,10.168,0,0,0,.561,2.093l1.724-.028a8.7,8.7,0,0,0,.772,1.333L339.785,179a10.382,10.382,0,0,0,1.533,1.533l1.479-.887a8.647,8.647,0,0,0,1.333.772l-.028,1.724a10.167,10.167,0,0,0,2.093.561l.838-1.509c.254.022.51.036.77.036s.516-.014.77-.036l.838,1.509a10.169,10.169,0,0,0,2.093-.561l-.028-1.724a8.642,8.642,0,0,0,1.333-.772l1.479.887A10.386,10.386,0,0,0,355.821,179l-.887-1.479a8.693,8.693,0,0,0,.772-1.333l1.724.028a10.17,10.17,0,0,0,.561-2.093l-1.509-.838C356.5,173.027,356.518,172.77,356.518,172.511Zm-8.715,5.916a5.917,5.917,0,1,1,5.916-5.916,5.917,5.917,0,0,1-5.916,5.916Z" fill="#407bff"/>
      <path id="Path_71" data-name="Path 71" d="M356.518,172.511c0-.26-.014-.516-.036-.77l1.509-.839a10.2,10.2,0,0,0-.561-2.093l-1.724.029a8.651,8.651,0,0,0-.772-1.334l.887-1.478a10.336,10.336,0,0,0-1.533-1.533l-1.479.886a8.721,8.721,0,0,0-1.333-.771l.028-1.724a10.231,10.231,0,0,0-2.093-.562l-.838,1.51c-.254-.023-.51-.036-.77-.036s-.516.013-.77.036l-.838-1.51a10.232,10.232,0,0,0-2.093.562l.028,1.724a8.726,8.726,0,0,0-1.333.771l-1.479-.886a10.337,10.337,0,0,0-1.533,1.533l.887,1.478a8.654,8.654,0,0,0-.772,1.334l-1.724-.029a10.2,10.2,0,0,0-.561,2.093l1.509.839c-.022.254-.036.51-.036.77s.014.516.036.77l-1.509.838a10.168,10.168,0,0,0,.561,2.093l1.724-.028a8.7,8.7,0,0,0,.772,1.333L339.785,179a10.382,10.382,0,0,0,1.533,1.533l1.479-.887a8.647,8.647,0,0,0,1.333.772l-.028,1.724a10.167,10.167,0,0,0,2.093.561l.838-1.509c.254.022.51.036.77.036s.516-.014.77-.036l.838,1.509a10.169,10.169,0,0,0,2.093-.561l-.028-1.724a8.642,8.642,0,0,0,1.333-.772l1.479.887A10.386,10.386,0,0,0,355.821,179l-.887-1.479a8.693,8.693,0,0,0,.772-1.333l1.724.028a10.17,10.17,0,0,0,.561-2.093l-1.509-.838C356.5,173.027,356.518,172.77,356.518,172.511Zm-8.715,5.916a5.917,5.917,0,1,1,5.916-5.916,5.917,5.917,0,0,1-5.916,5.916Z" fill="#fff" opacity="0.7"/>
    </g>
    <g id="Group_44" data-name="Group 44">
      <path id="Path_72" data-name="Path 72" d="M333.734,202.241c0-.388-.021-.772-.054-1.152l2.258-1.254a15.312,15.312,0,0,0-.84-3.13l-2.578.042a13.076,13.076,0,0,0-1.155-1.995l1.326-2.212a15.538,15.538,0,0,0-2.293-2.293l-2.212,1.327a13.016,13.016,0,0,0-1.994-1.155l.042-2.578a15.314,15.314,0,0,0-3.13-.84l-1.255,2.258c-.379-.034-.763-.054-1.151-.054s-.772.02-1.152.054L318.292,187a15.305,15.305,0,0,0-3.131.84l.043,2.578a13.072,13.072,0,0,0-1.995,1.155L311,190.247a15.578,15.578,0,0,0-2.293,2.293l1.326,2.212a13.068,13.068,0,0,0-1.154,1.995L306.3,196.7a15.309,15.309,0,0,0-.839,3.13l2.257,1.254c-.033.38-.053.764-.053,1.152s.02.772.053,1.152l-2.257,1.254a15.319,15.319,0,0,0,.839,3.131l2.579-.043a13.064,13.064,0,0,0,1.154,2l-1.326,2.212A15.532,15.532,0,0,0,311,214.235l2.212-1.327a13.075,13.075,0,0,0,1.995,1.155l-.043,2.578a15.306,15.306,0,0,0,3.131.84l1.254-2.257c.38.033.763.053,1.152.053s.772-.02,1.151-.053l1.255,2.257a15.314,15.314,0,0,0,3.13-.84l-.042-2.578a13.02,13.02,0,0,0,1.994-1.155l2.212,1.327a15.486,15.486,0,0,0,2.293-2.293l-1.326-2.212a13.075,13.075,0,0,0,1.155-1.995l2.578.043a15.32,15.32,0,0,0,.84-3.131l-2.258-1.254C333.713,203.013,333.734,202.63,333.734,202.241ZM320.7,207.379a5.138,5.138,0,1,1,5.138-5.138,5.138,5.138,0,0,1-5.138,5.138Z" fill="#407bff"/>
      <path id="Path_73" data-name="Path 73" d="M333.734,202.241c0-.388-.021-.772-.054-1.152l2.258-1.254a15.312,15.312,0,0,0-.84-3.13l-2.578.042a13.076,13.076,0,0,0-1.155-1.995l1.326-2.212a15.538,15.538,0,0,0-2.293-2.293l-2.212,1.327a13.016,13.016,0,0,0-1.994-1.155l.042-2.578a15.314,15.314,0,0,0-3.13-.84l-1.255,2.258c-.379-.034-.763-.054-1.151-.054s-.772.02-1.152.054L318.292,187a15.305,15.305,0,0,0-3.131.84l.043,2.578a13.072,13.072,0,0,0-1.995,1.155L311,190.247a15.578,15.578,0,0,0-2.293,2.293l1.326,2.212a13.068,13.068,0,0,0-1.154,1.995L306.3,196.7a15.309,15.309,0,0,0-.839,3.13l2.257,1.254c-.033.38-.053.764-.053,1.152s.02.772.053,1.152l-2.257,1.254a15.319,15.319,0,0,0,.839,3.131l2.579-.043a13.064,13.064,0,0,0,1.154,2l-1.326,2.212A15.532,15.532,0,0,0,311,214.235l2.212-1.327a13.075,13.075,0,0,0,1.995,1.155l-.043,2.578a15.306,15.306,0,0,0,3.131.84l1.254-2.257c.38.033.763.053,1.152.053s.772-.02,1.151-.053l1.255,2.257a15.314,15.314,0,0,0,3.13-.84l-.042-2.578a13.02,13.02,0,0,0,1.994-1.155l2.212,1.327a15.486,15.486,0,0,0,2.293-2.293l-1.326-2.212a13.075,13.075,0,0,0,1.155-1.995l2.578.043a15.32,15.32,0,0,0,.84-3.131l-2.258-1.254C333.713,203.013,333.734,202.63,333.734,202.241ZM320.7,207.379a5.138,5.138,0,1,1,5.138-5.138,5.138,5.138,0,0,1-5.138,5.138Z" fill="#fff" opacity="0.7"/>
    </g>
  </g>
  <g id="Group_46" data-name="Group 46" transform="translate(285.746 69.636)">
    <path id="Path_74" data-name="Path 74" d="M296.967,144.26v5.24l-4.985,2.629a1.216,1.216,0,0,0,0,2.15l4.985,2.629v5.239a2.116,2.116,0,0,0,2.117,2.116h17.885a2.116,2.116,0,0,0,2.117-2.116V144.26a2.117,2.117,0,0,0-2.117-2.116H299.084A2.117,2.117,0,0,0,296.967,144.26Z" transform="translate(-291.334 -142.144)" fill="#407bff"/>
    <g id="Group_45" data-name="Group 45" transform="translate(10.541 5.075)" opacity="0.9">
      <path id="Path_75" data-name="Path 75" d="M303.124,149.717h10.162a1.25,1.25,0,0,0,0-2.5H303.124a1.25,1.25,0,0,0,0,2.5Z" transform="translate(-301.875 -147.219)" fill="#fff"/>
      <path id="Path_76" data-name="Path 76" d="M313.286,151.954H303.124a1.25,1.25,0,0,0,0,2.5h10.162a1.25,1.25,0,0,0,0-2.5Z" transform="translate(-301.875 -147.219)" fill="#fff"/>
      <path id="Path_77" data-name="Path 77" d="M313.286,156.689H303.124a1.25,1.25,0,0,0,0,2.5h10.162a1.25,1.25,0,0,0,0-2.5Z" transform="translate(-301.875 -147.219)" fill="#fff"/>
    </g>
  </g>
  <g id="Character_1" data-name="Character 1" transform="translate(5 -70.284)">
    <g id="Group_98" data-name="Group 98">
      <path id="Path_141" data-name="Path 141" d="M141.474,176.82c.4,4.709-.614,13.242-4.167,15.97,5.8,2.087,11.928,5.692,15.858,10.438,3.887-5.66-.539-8.887-.539-8.887-5.009-1.783-4.464-5.568-3.176-9.059Z" fill="#b97964"/>
      <path id="Path_142" data-name="Path 142" d="M160.4,172.761c-.057.588.22,1.1.607,1.137s.746-.419.8-1.007-.22-1.1-.608-1.143S160.471,172.166,160.4,172.761Z" fill="#263238"/>
      <path id="Path_143" data-name="Path 143" d="M161.045,171.766l1.46-.279S161.674,172.563,161.045,171.766Z" fill="#263238"/>
      <path id="Path_144" data-name="Path 144" d="M160.6,173.391a16.048,16.048,0,0,0,1.769,3.985,2.572,2.572,0,0,1-2.155.2Z" fill="#a24e3f"/>
      <path id="Path_145" data-name="Path 145" d="M162.079,169.647a.379.379,0,0,0,.236-.123.356.356,0,0,0-.036-.495,3.475,3.475,0,0,0-3.085-.824.351.351,0,0,0,.187.65,2.8,2.8,0,0,1,2.438.685A.336.336,0,0,0,162.079,169.647Z" fill="#263238"/>
      <path id="Path_146" data-name="Path 146" d="M140.973,169.006c-.231,7.315-.482,10.425,2.78,14.5,4.911,6.132,13.8,4.789,16.172-2.331,2.142-6.406,2.164-17.322-4.563-20.867S141.209,161.671,140.973,169.006Z" fill="#b97964"/>
      <path id="Path_147" data-name="Path 147" d="M141.322,182.81c-7.194-1.225-5.128-5.759-5.128-5.759-7.084-1.434-1.615-4.893-1.615-4.893-5.892-2.538,0-4.814,0-4.814-5.68-4.712,2.46-6.314,2.46-6.314-2.008-7.35,4.969-4.335,4.969-4.335,3.806-6.314,7.08-.283,7.08-.283,6.665-9.047,8.286-1.413,8.286-1.413,6.8-1.791,4.193,5.368,4.193,5.368,5.6,1.5,1.205,4.338,1.205,4.338,2.157,2.733-5.654,3.205-5.654,3.205s3.717,5.957-.033,7.649l-9.458,7.251S143.283,181,141.322,182.81Z" fill="#263238"/>
      <path id="Path_148" data-name="Path 148" d="M148.388,176.909s4.952-11.972,1.092-22.242l3.3-1.131S157.093,168.428,148.388,176.909Z" fill="#407bff"/>
      <path id="Path_149" data-name="Path 149" d="M153.375,175.6c.829,1.718,1.142,2.465,2.324,3.035a2.151,2.151,0,0,0,3.145-2.378c-.311-1.723-1.637-4.254-3.465-4.306a2.4,2.4,0,0,0-2,3.649Z" fill="#b97964"/>
      <g id="Group_88" data-name="Group 88">
        <path id="Path_150" data-name="Path 150" d="M148.214,200.572s6.765,4.969,9.516,6.967l19.587-9.24h0a5.409,5.409,0,0,1,3.306-5.116l1.393-.588,2.955-1.314a3.43,3.43,0,0,1,3.41.36h0a3.428,3.428,0,0,1,1.272,3.739h0a8.5,8.5,0,0,1-6,5.824l-2.857.749S164,214.7,158.014,215.038s-14.787-5.588-14.787-5.588Z" fill="#b97964"/>
        <path id="Path_151" data-name="Path 151" d="M131.93,192.14c5.171-.022,10.948,3.223,20.047,9.118a24.862,24.862,0,0,1-7.011,11.084s-4.992-1.343-11.635-7.6C125.294,197.18,128.759,192.153,131.93,192.14Z" fill="#263238"/>
      </g>
      <g id="Group_92" data-name="Group 92">
        <g id="Group_89" data-name="Group 89">
          <path id="Path_152" data-name="Path 152" d="M230.133,207.123H181.138A2.9,2.9,0,0,1,178.2,203.9l3.691-42.188a3.584,3.584,0,0,1,3.5-3.219h48.995a2.9,2.9,0,0,1,2.937,3.219l-3.69,42.188a3.583,3.583,0,0,1-3.5,3.223Z" fill="#407bff"/>
          <path id="Path_153" data-name="Path 153" d="M230.133,207.123H181.138A2.9,2.9,0,0,1,178.2,203.9l3.691-42.188a3.584,3.584,0,0,1,3.5-3.219h48.995a2.9,2.9,0,0,1,2.937,3.219l-3.69,42.188a3.583,3.583,0,0,1-3.5,3.223Z" fill="#fff" opacity="0.4"/>
        </g>
        <path id="Path_154" data-name="Path 154" d="M230.308,205.122a1.358,1.358,0,0,0,1.325-1.218l3.691-42.188a1.1,1.1,0,0,0-1.112-1.219h-49a1.359,1.359,0,0,0-1.325,1.219L180.2,203.9a1.1,1.1,0,0,0,1.112,1.218Z" fill="#fff" opacity="0.7"/>
        <g id="Group_90" data-name="Group 90">
          <path id="Path_155" data-name="Path 155" d="M196.257,180.316l-16.019,23.168-.037.42a1.1,1.1,0,0,0,1.112,1.218h27.755Z" fill="#407bff"/>
          <path id="Path_156" data-name="Path 156" d="M196.257,180.316l-16.019,23.168-.037.42a1.1,1.1,0,0,0,1.112,1.218h27.755Z" fill="#fff" opacity="0.3"/>
        </g>
        <path id="Path_157" data-name="Path 157" d="M231.775,202.286l-13.414-25.469-19.86,28.3h31.807a1.358,1.358,0,0,0,1.325-1.218Z" fill="#407bff"/>
        <g id="Group_91" data-name="Group 91">
          <path id="Path_158" data-name="Path 158" d="M213.183,172.315a5.012,5.012,0,0,1-4.9,4.5,4.058,4.058,0,0,1-4.108-4.5,5.012,5.012,0,0,1,4.9-4.5,4.06,4.06,0,0,1,4.108,4.5Z" fill="#407bff"/>
          <path id="Path_159" data-name="Path 159" d="M213.183,172.315a5.012,5.012,0,0,1-4.9,4.5,4.058,4.058,0,0,1-4.108-4.5,5.012,5.012,0,0,1,4.9-4.5,4.06,4.06,0,0,1,4.108,4.5Z" fill="#fff" opacity="0.4"/>
        </g>
      </g>
      <g id="Group_94" data-name="Group 94">
        <path id="Path_160" data-name="Path 160" d="M90.9,377.371l-4.975,14.762,7.629,3.114,5.97-13.621Z" fill="#b97964"/>
        <g id="Group_93" data-name="Group 93">
          <path id="Path_161" data-name="Path 161" d="M96.289,394.877a.228.228,0,0,1-.115-.223.215.215,0,0,1,.167-.185c.159-.036,3.762-.84,5.1.016a1.139,1.139,0,0,1,.5.689.819.819,0,0,1-.264.909c-.506.357-1.7.209-2.788-.128A16.175,16.175,0,0,1,96.289,394.877Zm.76-.071c1.571.706,3.79,1.376,4.374.93.081-.052.174-.161.1-.467a.6.6,0,0,0-.318-.417,1.419,1.419,0,0,0-.382-.174,10.042,10.042,0,0,0-3.774.128Z" fill="#407bff"/>
          <path id="Path_162" data-name="Path 162" d="M96.183,394.831a.217.217,0,0,1-.036-.217c.046-.107,1.012-2.4,2.414-2.977a1.616,1.616,0,0,1,1.267,0c.555.235.645.579.593.824-.118,1.046-2.816,2.3-4.009,2.44a.126.126,0,0,1-.09-.02.2.2,0,0,1-.139-.05Zm3.384-2.84a1.135,1.135,0,0,0-.8.04,5.11,5.11,0,0,0-2,2.331c1.287-.307,3.13-1.369,3.26-1.982,0-.058.023-.216-.341-.363l-.123-.026Z" fill="#407bff"/>
          <path id="Path_163" data-name="Path 163" d="M95.772,393.371l-9.585-2.959a.807.807,0,0,0-.939.37l-4.14,7.263a1.343,1.343,0,0,0,.488,1.835,1.471,1.471,0,0,0,.26.116c3.474,1.006,6.6,1.765,10.9,3.1,5.075,1.569,3.6,1.778,9.542,3.706,3.581,1.157,5.5-2.727,4.038-3.4-6.707-3.032-6.781-5.363-8.7-8.692A3.229,3.229,0,0,0,95.772,393.371Z" fill="#263238"/>
        </g>
        <path id="Path_164" data-name="Path 164" d="M88.511,384.448l8,4.044,3.01-6.866L90.9,377.371Z" fill="#263238" opacity="0.2"/>
      </g>
      <path id="Path_165" data-name="Path 165" d="M124.723,240.85s-10.751,8.214-8.449,33.93c.213,2.379.983,4.87.993,7.594.008,1.807-.5,3.077-1.088,7.144-.863,5.925-2.444,28-4.108,30.867-1.647,2.841-2.35,2.367-7.042,10.284-5.048,8.517-11.5,23.458-16.524,48.786a28.264,28.264,0,0,0,11.234,4.7s27.474-43.318,33.314-59.445c5.225-14.43,11.452-60.48,11.452-60.48l.5-19.966Z" fill="#407bff"/>
      <path id="Path_166" data-name="Path 166" d="M136.484,274.78H128.7s-2.558,24.475,5.9,44.9c.885-3.279,1.777-7.214,2.646-11.458l3.365-21.562c-.478-3.643-.853-6.42-.909-6.6C139.53,279.492,136.484,274.78,136.484,274.78Z" opacity="0.1"/>
      <g id="Group_96" data-name="Group 96">
        <path id="Path_167" data-name="Path 167" d="M135.2,383.31l.051,15.69,8.851-.592,1.358-15.1Z" fill="#b97964"/>
        <g id="Group_95" data-name="Group 95">
          <path id="Path_168" data-name="Path 168" d="M145.122,398.144a.228.228,0,0,1-.182-.172.217.217,0,0,1,.1-.231c.138-.086,3.276-2.03,4.825-1.663a1.138,1.138,0,0,1,.7.484.819.819,0,0,1,.05.946c-.36.5-1.533.755-2.674.8A16.2,16.2,0,0,1,145.122,398.144Zm.694-.317c1.716.15,4.032.053,4.437-.56.059-.076.111-.209-.06-.474a.6.6,0,0,0-.438-.289,1.47,1.47,0,0,0-.418-.039,10.069,10.069,0,0,0-3.521,1.362Z" fill="#407bff"/>
          <path id="Path_169" data-name="Path 169" d="M145.006,398.135a.215.215,0,0,1-.1-.193c.008-.116.164-2.6,1.3-3.6a1.614,1.614,0,0,1,1.2-.414c.6.038.8.334.831.583.232,1.026-1.9,3.1-2.984,3.622a.123.123,0,0,1-.09.011A.2.2,0,0,1,145.006,398.135Zm2.262-3.8a1.134,1.134,0,0,0-.741.3,5.112,5.112,0,0,0-1.119,2.859c1.114-.714,2.5-2.324,2.427-2.944-.019-.055-.05-.212-.442-.231l-.125.015Z" fill="#407bff"/>
          <path id="Path_170" data-name="Path 170" d="M144.138,396.892l-10.024.358a.808.808,0,0,0-.766.659l-1.52,8.22a1.343,1.343,0,0,0,1.348,1.6c3.611-.192,6.818-.505,11.317-.659,5.309-.188,3.985.495,10.23.36,3.762-.084,4.3-4.384,2.7-4.537-7.331-.658-8.168-2.835-11.077-5.347a3.231,3.231,0,0,0-2.208-.65Z" fill="#263238"/>
        </g>
        <path id="Path_171" data-name="Path 171" d="M135.226,391.425l9.522-.2.712-7.916H135.2Z" fill="#263238" opacity="0.2"/>
      </g>
      <path id="Path_172" data-name="Path 172" d="M130.707,237.971S119.982,252.18,127.927,280l8.969,40.583s-8.537,18.464-4.03,67.163a41.2,41.2,0,0,0,13.245-.3s9.987-51.433,11.507-68.808c1.673-19.134.67-76.827.67-76.827Z" fill="#407bff"/>
      <g id="Group_97" data-name="Group 97">
        <path id="Path_173" data-name="Path 173" d="M137.192,191.942s-1.662-7.1,8.994-4,9.768,9.176,9.768,9.176Z" fill="#263238"/>
        <path id="Path_174" data-name="Path 174" d="M137.192,191.942s-1.662-7.1,8.994-4,9.768,9.176,9.768,9.176Z" opacity="0.4"/>
      </g>
      <path id="Path_175" data-name="Path 175" d="M163.632,209.7c0,2.49-1.05,6.09-1.991,10.12-.459,1.91-.88,3.9-1.159,5.92-1.511,11.01-2,22.59-2,22.59a43.864,43.864,0,0,1-34.341-6.81s4.191-3.55,3.33-28.14c-.389-11.08-4.389-24.25,13.92-22.18,15.461,1.75,20.661,6.55,21.911,14.06.009.09.03.19.05.29.03.23.06.46.09.7a29.3,29.3,0,0,1,.19,3.45Z" fill="#263238"/>
      <path id="Path_176" data-name="Path 176" d="M163.632,209.7c0,2.49-1.05,6.09-1.991,10.12-4.179-5.03-8.37-14.45-8.37-14.45l3.45-5.08,6.081,2.83a18.246,18.246,0,0,1,.5,2.14c.009.09.03.19.05.29.03.23.06.46.09.7a29.3,29.3,0,0,1,.19,3.45Z" opacity="0.4"/>
      <path id="Path_177" data-name="Path 177" d="M169.948,205.356s5.949,5.92,8.372,8.307l20.745-6.22h0a5.412,5.412,0,0,1,4.031-4.567l1.465-.373,3.118-.86a3.43,3.43,0,0,1,3.318.864h0a3.429,3.429,0,0,1,.7,3.887h0a8.5,8.5,0,0,1-6.8,4.866l-2.936.315s-18.517,10.106-24.477,9.545-13.79-7.728-13.79-7.728Z" fill="#b97964"/>
      <path id="Path_178" data-name="Path 178" d="M155.1,194.592c5.118.749,10.347,4.818,18.466,12a24.856,24.856,0,0,1-8.585,9.916s-4.736-2.072-10.372-9.245C147.789,198.587,151.964,194.133,155.1,194.592Z" fill="#263238"/>
      <g id="Group_99" data-name="Group 99" transform="translate(57 7.929)">
        <g id="Group_89-2" data-name="Group 89">
          <path id="Path_152-2" data-name="Path 152" d="M230.133,207.123H181.138A2.9,2.9,0,0,1,178.2,203.9l3.691-42.188a3.584,3.584,0,0,1,3.5-3.219h48.995a2.9,2.9,0,0,1,2.937,3.219l-3.69,42.188a3.583,3.583,0,0,1-3.5,3.223Z" fill="#407bff"/>
          <path id="Path_153-2" data-name="Path 153" d="M230.133,207.123H181.138A2.9,2.9,0,0,1,178.2,203.9l3.691-42.188a3.584,3.584,0,0,1,3.5-3.219h48.995a2.9,2.9,0,0,1,2.937,3.219l-3.69,42.188a3.583,3.583,0,0,1-3.5,3.223Z" fill="#fff" opacity="0.4"/>
        </g>
        <path id="Path_154-2" data-name="Path 154" d="M230.308,205.122a1.358,1.358,0,0,0,1.325-1.218l3.691-42.188a1.1,1.1,0,0,0-1.112-1.219h-49a1.359,1.359,0,0,0-1.325,1.219L180.2,203.9a1.1,1.1,0,0,0,1.112,1.218Z" fill="#fff" opacity="0.7"/>
        <g id="Group_90-2" data-name="Group 90">
          <path id="Path_155-2" data-name="Path 155" d="M196.257,180.316l-16.019,23.168-.037.42a1.1,1.1,0,0,0,1.112,1.218h27.755Z" fill="#407bff"/>
          <path id="Path_156-2" data-name="Path 156" d="M196.257,180.316l-16.019,23.168-.037.42a1.1,1.1,0,0,0,1.112,1.218h27.755Z" fill="#fff" opacity="0.3"/>
        </g>
        <path id="Path_157-2" data-name="Path 157" d="M231.775,202.286l-13.414-25.469-19.86,28.3h31.807a1.358,1.358,0,0,0,1.325-1.218Z" fill="#407bff"/>
        <g id="Group_91-2" data-name="Group 91">
          <path id="Path_158-2" data-name="Path 158" d="M213.183,172.315a5.012,5.012,0,0,1-4.9,4.5,4.058,4.058,0,0,1-4.108-4.5,5.012,5.012,0,0,1,4.9-4.5,4.06,4.06,0,0,1,4.108,4.5Z" fill="#407bff"/>
          <path id="Path_159-2" data-name="Path 159" d="M213.183,172.315a5.012,5.012,0,0,1-4.9,4.5,4.058,4.058,0,0,1-4.108-4.5,5.012,5.012,0,0,1,4.9-4.5,4.06,4.06,0,0,1,4.108,4.5Z" fill="#fff" opacity="0.4"/>
        </g>
      </g>
      <g id="Group_101" data-name="Group 101" transform="translate(-8 99.929)">
        <g id="Group_89-3" data-name="Group 89">
          <path id="Path_152-3" data-name="Path 152" d="M230.133,207.123H181.138A2.9,2.9,0,0,1,178.2,203.9l3.691-42.188a3.584,3.584,0,0,1,3.5-3.219h48.995a2.9,2.9,0,0,1,2.937,3.219l-3.69,42.188a3.583,3.583,0,0,1-3.5,3.223Z" fill="#407bff"/>
          <path id="Path_153-3" data-name="Path 153" d="M230.133,207.123H181.138A2.9,2.9,0,0,1,178.2,203.9l3.691-42.188a3.584,3.584,0,0,1,3.5-3.219h48.995a2.9,2.9,0,0,1,2.937,3.219l-3.69,42.188a3.583,3.583,0,0,1-3.5,3.223Z" fill="#fff" opacity="0.4"/>
        </g>
        <path id="Path_154-3" data-name="Path 154" d="M230.308,205.122a1.358,1.358,0,0,0,1.325-1.218l3.691-42.188a1.1,1.1,0,0,0-1.112-1.219h-49a1.359,1.359,0,0,0-1.325,1.219L180.2,203.9a1.1,1.1,0,0,0,1.112,1.218Z" fill="#fff" opacity="0.7"/>
        <g id="Group_90-3" data-name="Group 90">
          <path id="Path_155-3" data-name="Path 155" d="M196.257,180.316l-16.019,23.168-.037.42a1.1,1.1,0,0,0,1.112,1.218h27.755Z" fill="#407bff"/>
          <path id="Path_156-3" data-name="Path 156" d="M196.257,180.316l-16.019,23.168-.037.42a1.1,1.1,0,0,0,1.112,1.218h27.755Z" fill="#fff" opacity="0.3"/>
        </g>
        <path id="Path_157-3" data-name="Path 157" d="M231.775,202.286l-13.414-25.469-19.86,28.3h31.807a1.358,1.358,0,0,0,1.325-1.218Z" fill="#407bff"/>
        <g id="Group_91-3" data-name="Group 91">
          <path id="Path_158-3" data-name="Path 158" d="M213.183,172.315a5.012,5.012,0,0,1-4.9,4.5,4.058,4.058,0,0,1-4.108-4.5,5.012,5.012,0,0,1,4.9-4.5,4.06,4.06,0,0,1,4.108,4.5Z" fill="#407bff"/>
          <path id="Path_159-3" data-name="Path 159" d="M213.183,172.315a5.012,5.012,0,0,1-4.9,4.5,4.058,4.058,0,0,1-4.108-4.5,5.012,5.012,0,0,1,4.9-4.5,4.06,4.06,0,0,1,4.108,4.5Z" fill="#fff" opacity="0.4"/>
        </g>
      </g>
      <g id="Group_102" data-name="Group 102" transform="translate(51.148 99.929)">
        <g id="Group_89-4" data-name="Group 89">
          <path id="Path_152-4" data-name="Path 152" d="M230.133,207.123H181.138A2.9,2.9,0,0,1,178.2,203.9l3.691-42.188a3.584,3.584,0,0,1,3.5-3.219h48.995a2.9,2.9,0,0,1,2.937,3.219l-3.69,42.188a3.583,3.583,0,0,1-3.5,3.223Z" fill="#407bff"/>
          <path id="Path_153-4" data-name="Path 153" d="M230.133,207.123H181.138A2.9,2.9,0,0,1,178.2,203.9l3.691-42.188a3.584,3.584,0,0,1,3.5-3.219h48.995a2.9,2.9,0,0,1,2.937,3.219l-3.69,42.188a3.583,3.583,0,0,1-3.5,3.223Z" fill="#fff" opacity="0.4"/>
        </g>
        <path id="Path_154-4" data-name="Path 154" d="M230.308,205.122a1.358,1.358,0,0,0,1.325-1.218l3.691-42.188a1.1,1.1,0,0,0-1.112-1.219h-49a1.359,1.359,0,0,0-1.325,1.219L180.2,203.9a1.1,1.1,0,0,0,1.112,1.218Z" fill="#fff" opacity="0.7"/>
        <g id="Group_90-4" data-name="Group 90">
          <path id="Path_155-4" data-name="Path 155" d="M196.257,180.316l-16.019,23.168-.037.42a1.1,1.1,0,0,0,1.112,1.218h27.755Z" fill="#407bff"/>
          <path id="Path_156-4" data-name="Path 156" d="M196.257,180.316l-16.019,23.168-.037.42a1.1,1.1,0,0,0,1.112,1.218h27.755Z" fill="#fff" opacity="0.3"/>
        </g>
        <path id="Path_157-4" data-name="Path 157" d="M231.775,202.286l-13.414-25.469-19.86,28.3h31.807a1.358,1.358,0,0,0,1.325-1.218Z" fill="#407bff"/>
        <g id="Group_91-4" data-name="Group 91">
          <path id="Path_158-4" data-name="Path 158" d="M213.183,172.315a5.012,5.012,0,0,1-4.9,4.5,4.058,4.058,0,0,1-4.108-4.5,5.012,5.012,0,0,1,4.9-4.5,4.06,4.06,0,0,1,4.108,4.5Z" fill="#407bff"/>
          <path id="Path_159-4" data-name="Path 159" d="M213.183,172.315a5.012,5.012,0,0,1-4.9,4.5,4.058,4.058,0,0,1-4.108-4.5,5.012,5.012,0,0,1,4.9-4.5,4.06,4.06,0,0,1,4.108,4.5Z" fill="#fff" opacity="0.4"/>
        </g>
      </g>
    </g>
  </g>
</svg>
