<svg id="Component_1_1" data-name="Component 1 – 1" xmlns="http://www.w3.org/2000/svg" width="500" height="372.608" viewBox="0 0 500 372.608">
  <g id="Background_Complete" data-name="Background Complete" transform="translate(0 -54.953)">
    <g id="Group_1" data-name="Group 1">
      <rect id="Rectangle_1" data-name="Rectangle 1" width="500" height="0.25" transform="translate(0 382.398)" fill="#ebebeb"/>
      <rect id="Rectangle_2" data-name="Rectangle 2" width="33.122" height="0.25" transform="translate(416.779 398.494)" fill="#ebebeb"/>
      <rect id="Rectangle_3" data-name="Rectangle 3" width="8.693" height="0.25" transform="translate(322.527 401.208)" fill="#ebebeb"/>
      <rect id="Rectangle_4" data-name="Rectangle 4" width="19.192" height="0.25" transform="translate(396.586 389.208)" fill="#ebebeb"/>
      <rect id="Rectangle_5" data-name="Rectangle 5" width="43.193" height="0.25" transform="translate(52.459 390.888)" fill="#ebebeb"/>
      <rect id="Rectangle_6" data-name="Rectangle 6" width="6.333" height="0.25" transform="translate(104.556 390.888)" fill="#ebebeb"/>
      <rect id="Rectangle_7" data-name="Rectangle 7" width="93.676" height="0.25" transform="translate(131.471 395.111)" fill="#ebebeb"/>
      <path id="Path_1" data-name="Path 1" d="M237.014,337.8H43.915a5.715,5.715,0,0,1-5.708-5.708V60.66a5.714,5.714,0,0,1,5.708-5.707h193.1a5.714,5.714,0,0,1,5.707,5.707V332.092A5.715,5.715,0,0,1,237.014,337.8ZM43.915,55.2a5.463,5.463,0,0,0-5.458,5.457V332.092a5.464,5.464,0,0,0,5.458,5.458h193.1a5.463,5.463,0,0,0,5.457-5.458V60.66a5.463,5.463,0,0,0-5.457-5.457Z" fill="#ebebeb"/>
      <path id="Path_2" data-name="Path 2" d="M453.31,337.8h-193.1a5.714,5.714,0,0,1-5.707-5.708V60.66a5.713,5.713,0,0,1,5.707-5.707h193.1a5.714,5.714,0,0,1,5.709,5.707V332.092A5.715,5.715,0,0,1,453.31,337.8ZM260.212,55.2a5.463,5.463,0,0,0-5.457,5.457V332.092a5.463,5.463,0,0,0,5.457,5.458h193.1a5.464,5.464,0,0,0,5.459-5.458V60.66A5.464,5.464,0,0,0,453.31,55.2Z" fill="#ebebeb"/>
    </g>
    <g id="Group_2" data-name="Group 2">
      <rect id="Rectangle_8" data-name="Rectangle 8" width="49.051" height="59.979" transform="translate(88.106 90.883)" fill="#f0f0f0"/>
      <rect id="Rectangle_9" data-name="Rectangle 9" width="56.42" height="59.979" transform="translate(91.27 90.883)" fill="#f5f5f5"/>
      <rect id="Rectangle_10" data-name="Rectangle 10" width="50.525" height="46.967" transform="translate(142.964 95.609) rotate(90)" fill="#fff"/>
      <rect id="Rectangle_11" data-name="Rectangle 11" width="26.032" height="24.199" transform="translate(131.58 107.856) rotate(90)" fill="#f5f5f5"/>
    </g>
    <g id="Group_3" data-name="Group 3">
      <rect id="Rectangle_12" data-name="Rectangle 12" width="49.051" height="59.979" transform="translate(170.875 118.765)" fill="#f0f0f0"/>
      <rect id="Rectangle_13" data-name="Rectangle 13" width="56.42" height="59.979" transform="translate(174.039 118.765)" fill="#f5f5f5"/>
      <rect id="Rectangle_14" data-name="Rectangle 14" width="50.525" height="46.967" transform="translate(225.732 123.491) rotate(90)" fill="#fff"/>
      <rect id="Rectangle_15" data-name="Rectangle 15" width="26.032" height="24.199" rx="9.682" transform="translate(214.348 135.738) rotate(90)" fill="#f5f5f5"/>
    </g>
    <g id="Group_7" data-name="Group 7">
      <rect id="Rectangle_16" data-name="Rectangle 16" width="27.188" height="50.917" transform="translate(417.199 331.481)" fill="#e6e6e6"/>
      <path id="Path_3" data-name="Path 3" d="M439.223,382.4h5.164V363.254H433.809Z" fill="#f0f0f0"/>
      <rect id="Rectangle_17" data-name="Rectangle 17" width="27.188" height="50.917" transform="translate(262.072 331.481)" fill="#e6e6e6"/>
      <rect id="Rectangle_18" data-name="Rectangle 18" width="159.635" height="45.692" transform="translate(284.753 331.481)" fill="#f0f0f0"/>
      <path id="Path_4" data-name="Path 4" d="M289.917,382.4h-5.164V363.254h10.578Z" fill="#f0f0f0"/>
      <g id="Group_4" data-name="Group 4">
        <rect id="Rectangle_19" data-name="Rectangle 19" width="29.191" height="47.321" transform="translate(290.061 368.58) rotate(-90)" fill="#e6e6e6"/>
        <path id="Path_5" data-name="Path 5" d="M318.4,349.466h-9.362c-4.067,0-7.954-4.1-10.751-11.34h30.864C326.357,345.365,322.469,349.466,318.4,349.466Z" fill="#f0f0f0"/>
      </g>
      <g id="Group_5" data-name="Group 5">
        <rect id="Rectangle_20" data-name="Rectangle 20" width="29.191" height="47.321" transform="translate(340.91 368.58) rotate(-90)" fill="#e6e6e6"/>
        <path id="Path_6" data-name="Path 6" d="M369.73,349.466h-9.362c-4.067,0-7.954-4.1-10.751-11.34h30.864C377.684,345.365,373.8,349.466,369.73,349.466Z" fill="#f0f0f0"/>
      </g>
      <g id="Group_6" data-name="Group 6">
        <rect id="Rectangle_21" data-name="Rectangle 21" width="29.191" height="47.321" transform="translate(391.759 368.58) rotate(-90)" fill="#e6e6e6"/>
        <path id="Path_7" data-name="Path 7" d="M420.578,349.466h-9.361c-4.067,0-7.955-4.1-10.751-11.34h30.863C428.533,345.365,424.645,349.466,420.578,349.466Z" fill="#f0f0f0"/>
      </g>
    </g>
    <g id="Group_8" data-name="Group 8">
      <rect id="Rectangle_22" data-name="Rectangle 22" width="155.623" height="132.458" transform="translate(280.832 84.184)" fill="#e6e6e6"/>
      <rect id="Rectangle_23" data-name="Rectangle 23" width="158.329" height="132.458" transform="translate(283.206 84.184)" fill="#f0f0f0"/>
      <rect id="Rectangle_24" data-name="Rectangle 24" width="155.623" height="9.439" transform="translate(280.832 216.642)" fill="#e6e6e6"/>
      <rect id="Rectangle_25" data-name="Rectangle 25" width="158.329" height="9.439" transform="translate(291.667 216.642)" fill="#f0f0f0"/>
      <rect id="Rectangle_26" data-name="Rectangle 26" width="118.237" height="144.107" transform="translate(434.423 91.295) rotate(90)" fill="#fafafa"/>
      <path id="Path_8" data-name="Path 8" d="M382.057,209.532,393.444,91.295h19.7L401.759,209.532Z" fill="#fff"/>
      <path id="Path_9" data-name="Path 9" d="M293.609,169.453a.544.544,0,0,1-.544-.544V95.921a.544.544,0,0,1,1.088,0v72.988A.544.544,0,0,1,293.609,169.453Z" fill="#f0f0f0"/>
      <path id="Path_10" data-name="Path 10" d="M405.991,209.532,417.378,91.295h7.681L413.672,209.532Z" fill="#fff"/>
      <rect id="Rectangle_27" data-name="Rectangle 27" width="118.237" height="0.903" transform="translate(434.423 91.295) rotate(90)" fill="#e6e6e6"/>
      <path id="Path_11" data-name="Path 11" d="M443.216,104.187H287.593l-.654-10.128H442.561Z" fill="#e0e0e0" opacity="0.5"/>
      <path id="Path_12" data-name="Path 12" d="M443.216,120.837H287.593l-.654-10.128H442.561Z" fill="#e0e0e0" opacity="0.5"/>
      <path id="Path_13" data-name="Path 13" d="M443.216,137.487H287.593l-.654-10.128H442.561Z" fill="#e0e0e0" opacity="0.5"/>
      <path id="Path_14" data-name="Path 14" d="M443.216,154.136H287.593l-.654-10.128H442.561Z" fill="#e0e0e0" opacity="0.5"/>
      <path id="Path_15" data-name="Path 15" d="M443.216,170.786H287.593l-.654-10.128H442.561Z" fill="#e0e0e0" opacity="0.5"/>
      <path id="Path_16" data-name="Path 16" d="M443.216,187.436H287.593l-.654-10.128H442.561Z" fill="#e0e0e0" opacity="0.5"/>
    </g>
    <g id="Group_10" data-name="Group 10">
      <g id="Group_9" data-name="Group 9">
        <rect id="Rectangle_28" data-name="Rectangle 28" width="47.424" height="121.25" transform="translate(195.166 261.148)" fill="#e6e6e6"/>
        <path id="Path_17" data-name="Path 17" d="M237.819,382.4h4.77V365.886h-9.772Z" fill="#f0f0f0"/>
        <rect id="Rectangle_29" data-name="Rectangle 29" width="47.424" height="121.25" transform="translate(120.849 261.148)" fill="#e6e6e6"/>
        <rect id="Rectangle_30" data-name="Rectangle 30" width="78.48" height="111.118" transform="translate(164.109 261.148)" fill="#f0f0f0"/>
        <rect id="Rectangle_31" data-name="Rectangle 31" width="71.079" height="30.473" transform="translate(167.81 266.073)" fill="#e6e6e6"/>
        <path id="Path_18" data-name="Path 18" d="M210.309,275.543H199.594c-4.654,0-9.1-3.759-12.3-10.4h35.323C219.412,271.784,214.963,275.543,210.309,275.543Z" fill="#f0f0f0"/>
        <path id="Path_19" data-name="Path 19" d="M168.88,382.4h-4.77V365.886h9.772Z" fill="#f0f0f0"/>
        <rect id="Rectangle_32" data-name="Rectangle 32" width="71.079" height="30.472" transform="translate(167.81 301.471)" fill="#e6e6e6"/>
        <path id="Path_20" data-name="Path 20" d="M210.309,310.94H199.594c-4.654,0-9.1-3.759-12.3-10.4h35.323C219.412,307.181,214.963,310.94,210.309,310.94Z" fill="#f0f0f0"/>
        <rect id="Rectangle_33" data-name="Rectangle 33" width="71.079" height="30.473" transform="translate(167.81 336.868)" fill="#e6e6e6"/>
        <path id="Path_21" data-name="Path 21" d="M210.309,346.338H199.594c-4.654,0-9.1-3.759-12.3-10.4h35.323C219.412,342.579,214.963,346.338,210.309,346.338Z" fill="#f0f0f0"/>
      </g>
    </g>
    <g id="Group_11" data-name="Group 11">
      <rect id="Rectangle_34" data-name="Rectangle 34" width="40.662" height="58.992" rx="6.313" transform="translate(334.327 331.359) rotate(180)" fill="#f5f5f5"/>
      <path id="Path_22" data-name="Path 22" d="M399.182,298.538s-1,32.821-39.439,32.821S320.3,298.538,320.3,298.538Z" fill="#f0f0f0"/>
    </g>
    <g id="Group_14" data-name="Group 14">
      <g id="Group_13" data-name="Group 13">
        <path id="Path_23" data-name="Path 23" d="M91.043,356.077H93c-.02-8.352.009-11.15.206-59.7C93.561,208.365,94.237,203,94.237,203l-4.67,40.628C86.608,288.616,90.425,315.436,91.043,356.077Z" fill="#f0f0f0"/>
        <g id="Group_12" data-name="Group 12">
          <path id="Path_24" data-name="Path 24" d="M90.6,382.4h0a26.706,26.706,0,0,1-26.1-21.03,55.6,55.6,0,0,0-2.72-9.4l-.2-.488h58.031l-.2.488a55.511,55.511,0,0,0-2.72,9.4A26.706,26.706,0,0,1,90.6,382.4Z" fill="#fafafa"/>
          <path id="Path_25" data-name="Path 25" d="M123.369,354.42H57.822l-1.877-14.194h69.3Z" fill="#f0f0f0"/>
        </g>
      </g>
      <path id="Path_26" data-name="Path 26" d="M89.356,277.2c11.453-19.948-18.235-27.092-27.863-44.871C49.931,246.374,75.939,300.569,89.356,277.2Z" fill="#f0f0f0"/>
      <path id="Path_27" data-name="Path 27" d="M91.567,260.81c-4.416-10.055,16.841-22.249,21.434-38.592C121.476,231.65,104.639,290.578,91.567,260.81Z" fill="#f0f0f0"/>
      <path id="Path_28" data-name="Path 28" d="M91.4,291.134c3.6-12.673,24.181-3.532,34.681-27.339C137.251,297.416,81.417,326.332,91.4,291.134Z" fill="#f0f0f0"/>
      <path id="Path_29" data-name="Path 29" d="M92.31,306.27c-.235-12.048-13.315-1.359-37.037-22.806C51.037,305.6,93.221,352.777,92.31,306.27Z" fill="#f0f0f0"/>
    </g>
  </g>
  <g id="Shadow" transform="translate(0 -54.953)">
    <ellipse id="_Path_" data-name="&lt;Path&gt;" cx="193.889" cy="11.323" rx="193.889" ry="11.323" transform="translate(56.111 404.915)" fill="#f5f5f5"/>
  </g>
  <g id="Filter" transform="translate(0 -54.953)">
    <g id="Group_33" data-name="Group 33">
      <g id="Group_92" data-name="Group 92" transform="translate(289.2 -144.854) rotate(60)">
        <g id="Group_89" data-name="Group 89">
          <path id="Path_152" data-name="Path 152" d="M230.133,207.123H181.138A2.9,2.9,0,0,1,178.2,203.9l3.691-42.188a3.584,3.584,0,0,1,3.5-3.219h48.995a2.9,2.9,0,0,1,2.937,3.219L233.633,203.9A3.583,3.583,0,0,1,230.133,207.123Z" fill="#407bff"/>
          <path id="Path_153" data-name="Path 153" d="M230.133,207.123H181.138A2.9,2.9,0,0,1,178.2,203.9l3.691-42.188a3.584,3.584,0,0,1,3.5-3.219h48.995a2.9,2.9,0,0,1,2.937,3.219L233.633,203.9A3.583,3.583,0,0,1,230.133,207.123Z" fill="#fff" opacity="0.4"/>
        </g>
        <path id="Path_154" data-name="Path 154" d="M230.308,205.122a1.358,1.358,0,0,0,1.325-1.218l3.691-42.188a1.1,1.1,0,0,0-1.112-1.219h-49a1.359,1.359,0,0,0-1.325,1.219L180.2,203.9a1.1,1.1,0,0,0,1.112,1.218Z" fill="#fff" opacity="0.7"/>
        <g id="Group_90" data-name="Group 90">
          <path id="Path_155" data-name="Path 155" d="M196.257,180.316l-16.019,23.168-.037.42a1.1,1.1,0,0,0,1.112,1.218h27.755Z" fill="#407bff"/>
          <path id="Path_156" data-name="Path 156" d="M196.257,180.316l-16.019,23.168-.037.42a1.1,1.1,0,0,0,1.112,1.218h27.755Z" fill="#fff" opacity="0.3"/>
        </g>
        <path id="Path_157" data-name="Path 157" d="M231.775,202.286l-13.414-25.469-19.86,28.3h31.807a1.358,1.358,0,0,0,1.325-1.218Z" fill="#407bff"/>
        <g id="Group_91" data-name="Group 91">
          <path id="Path_158" data-name="Path 158" d="M213.183,172.315a5.012,5.012,0,0,1-4.9,4.5,4.058,4.058,0,0,1-4.108-4.5,5.012,5.012,0,0,1,4.9-4.5A4.06,4.06,0,0,1,213.183,172.315Z" fill="#407bff"/>
          <path id="Path_159" data-name="Path 159" d="M213.183,172.315a5.012,5.012,0,0,1-4.9,4.5,4.058,4.058,0,0,1-4.108-4.5,5.012,5.012,0,0,1,4.9-4.5A4.06,4.06,0,0,1,213.183,172.315Z" fill="#fff" opacity="0.4"/>
        </g>
      </g>
      <g id="Group_92-2" data-name="Group 92" transform="translate(-147.57 73.968) rotate(-30)">
        <g id="Group_89-2" data-name="Group 89">
          <path id="Path_152-2" data-name="Path 152" d="M230.133,207.123H181.138A2.9,2.9,0,0,1,178.2,203.9l3.691-42.188a3.584,3.584,0,0,1,3.5-3.219h48.995a2.9,2.9,0,0,1,2.937,3.219L233.633,203.9A3.583,3.583,0,0,1,230.133,207.123Z" fill="#407bff"/>
          <path id="Path_153-2" data-name="Path 153" d="M230.133,207.123H181.138A2.9,2.9,0,0,1,178.2,203.9l3.691-42.188a3.584,3.584,0,0,1,3.5-3.219h48.995a2.9,2.9,0,0,1,2.937,3.219L233.633,203.9A3.583,3.583,0,0,1,230.133,207.123Z" fill="#fff" opacity="0.4"/>
        </g>
        <path id="Path_154-2" data-name="Path 154" d="M230.308,205.122a1.358,1.358,0,0,0,1.325-1.218l3.691-42.188a1.1,1.1,0,0,0-1.112-1.219h-49a1.359,1.359,0,0,0-1.325,1.219L180.2,203.9a1.1,1.1,0,0,0,1.112,1.218Z" fill="#fff" opacity="0.7"/>
        <g id="Group_90-2" data-name="Group 90">
          <path id="Path_155-2" data-name="Path 155" d="M196.257,180.316l-16.019,23.168-.037.42a1.1,1.1,0,0,0,1.112,1.218h27.755Z" fill="#407bff"/>
          <path id="Path_156-2" data-name="Path 156" d="M196.257,180.316l-16.019,23.168-.037.42a1.1,1.1,0,0,0,1.112,1.218h27.755Z" fill="#fff" opacity="0.3"/>
        </g>
        <path id="Path_157-2" data-name="Path 157" d="M231.775,202.286l-13.414-25.469-19.86,28.3h31.807a1.358,1.358,0,0,0,1.325-1.218Z" fill="#407bff"/>
        <g id="Group_91-2" data-name="Group 91">
          <path id="Path_158-2" data-name="Path 158" d="M213.183,172.315a5.012,5.012,0,0,1-4.9,4.5,4.058,4.058,0,0,1-4.108-4.5,5.012,5.012,0,0,1,4.9-4.5A4.06,4.06,0,0,1,213.183,172.315Z" fill="#407bff"/>
          <path id="Path_159-2" data-name="Path 159" d="M213.183,172.315a5.012,5.012,0,0,1-4.9,4.5,4.058,4.058,0,0,1-4.108-4.5,5.012,5.012,0,0,1,4.9-4.5A4.06,4.06,0,0,1,213.183,172.315Z" fill="#fff" opacity="0.4"/>
        </g>
      </g>
      <g id="Group_29" data-name="Group 29">
        <g id="Group_23" data-name="Group 23">
          <rect id="Rectangle_35" data-name="Rectangle 35" width="50.959" height="8.838" transform="translate(157.12 407.4)" fill="#407bff"/>
          <rect id="Rectangle_36" data-name="Rectangle 36" width="2.036" height="8.838" transform="translate(159.637 407.4)" opacity="0.2"/>
          <rect id="Rectangle_37" data-name="Rectangle 37" width="2.036" height="8.838" transform="translate(165.123 407.4)" opacity="0.2"/>
          <rect id="Rectangle_38" data-name="Rectangle 38" width="2.036" height="8.838" transform="translate(170.609 407.4)" opacity="0.2"/>
          <rect id="Rectangle_39" data-name="Rectangle 39" width="2.036" height="8.838" transform="translate(176.096 407.4)" opacity="0.2"/>
          <rect id="Rectangle_40" data-name="Rectangle 40" width="2.036" height="8.838" transform="translate(181.582 407.4)" opacity="0.2"/>
          <rect id="Rectangle_41" data-name="Rectangle 41" width="2.036" height="8.838" transform="translate(187.069 407.4)" opacity="0.2"/>
          <rect id="Rectangle_42" data-name="Rectangle 42" width="2.036" height="8.838" transform="translate(192.555 407.4)" opacity="0.2"/>
          <rect id="Rectangle_43" data-name="Rectangle 43" width="2.036" height="8.838" transform="translate(198.041 407.4)" opacity="0.2"/>
          <rect id="Rectangle_44" data-name="Rectangle 44" width="2.036" height="8.838" transform="translate(203.528 407.4)" opacity="0.2"/>
        </g>
        <g id="Group_24" data-name="Group 24">
          <rect id="Rectangle_45" data-name="Rectangle 45" width="50.959" height="8.838" transform="translate(155.321 398.562)" fill="#407bff"/>
          <rect id="Rectangle_46" data-name="Rectangle 46" width="2.036" height="8.838" transform="translate(157.837 398.562)" opacity="0.2"/>
          <rect id="Rectangle_47" data-name="Rectangle 47" width="2.036" height="8.838" transform="translate(163.323 398.562)" opacity="0.2"/>
          <rect id="Rectangle_48" data-name="Rectangle 48" width="2.036" height="8.838" transform="translate(168.81 398.562)" opacity="0.2"/>
          <rect id="Rectangle_49" data-name="Rectangle 49" width="2.036" height="8.838" transform="translate(174.296 398.562)" opacity="0.2"/>
          <rect id="Rectangle_50" data-name="Rectangle 50" width="2.036" height="8.838" transform="translate(179.782 398.562)" opacity="0.2"/>
          <rect id="Rectangle_51" data-name="Rectangle 51" width="2.036" height="8.838" transform="translate(185.269 398.562)" opacity="0.2"/>
          <rect id="Rectangle_52" data-name="Rectangle 52" width="2.036" height="8.838" transform="translate(190.755 398.562)" opacity="0.2"/>
          <rect id="Rectangle_53" data-name="Rectangle 53" width="2.036" height="8.838" transform="translate(196.241 398.562)" opacity="0.2"/>
          <rect id="Rectangle_54" data-name="Rectangle 54" width="2.036" height="8.838" transform="translate(201.728 398.562)" opacity="0.2"/>
        </g>
        <g id="Group_25" data-name="Group 25">
          <rect id="Rectangle_55" data-name="Rectangle 55" width="50.959" height="8.838" transform="translate(156.754 389.725)" fill="#407bff"/>
          <rect id="Rectangle_56" data-name="Rectangle 56" width="2.036" height="8.838" transform="translate(159.27 389.725)" opacity="0.2"/>
          <rect id="Rectangle_57" data-name="Rectangle 57" width="2.036" height="8.838" transform="translate(164.756 389.725)" opacity="0.2"/>
          <rect id="Rectangle_58" data-name="Rectangle 58" width="2.036" height="8.838" transform="translate(170.243 389.725)" opacity="0.2"/>
          <rect id="Rectangle_59" data-name="Rectangle 59" width="2.036" height="8.838" transform="translate(175.729 389.725)" opacity="0.2"/>
          <rect id="Rectangle_60" data-name="Rectangle 60" width="2.036" height="8.838" transform="translate(181.215 389.725)" opacity="0.2"/>
          <rect id="Rectangle_61" data-name="Rectangle 61" width="2.036" height="8.838" transform="translate(186.702 389.725)" opacity="0.2"/>
          <rect id="Rectangle_62" data-name="Rectangle 62" width="2.036" height="8.838" transform="translate(192.188 389.725)" opacity="0.2"/>
          <rect id="Rectangle_63" data-name="Rectangle 63" width="2.036" height="8.838" transform="translate(197.674 389.725)" opacity="0.2"/>
          <rect id="Rectangle_64" data-name="Rectangle 64" width="2.036" height="8.838" transform="translate(203.161 389.725)" opacity="0.2"/>
        </g>
        <g id="Group_28" data-name="Group 28">
          <g id="Group_26" data-name="Group 26">
            <circle id="Ellipse_6" data-name="Ellipse 6" cx="25.69" cy="25.69" r="25.69" transform="translate(148.975 340.596) rotate(-12.992)" fill="#407bff"/>
            <path id="Path_40" data-name="Path 40" d="M198.076,371.287a21.573,21.573,0,1,1-6.859-29.727A21.573,21.573,0,0,1,198.076,371.287Z" opacity="0.2"/>
            <circle id="Ellipse_7" data-name="Ellipse 7" cx="21.202" cy="21.202" r="21.202" transform="translate(154.717 344.827) rotate(-12.992)" fill="#407bff"/>
          </g>
          <g id="Group_27" data-name="Group 27">
            <path id="Path_41" data-name="Path 41" d="M187.212,364.485l-3.185,5.1a1.65,1.65,0,0,1-1.092.754,1.72,1.72,0,0,1-1.333-.225l-4.483-2.8-2.243,3.589a1.655,1.655,0,0,1-1.089.768,1.676,1.676,0,0,1-1.3-.217,1.727,1.727,0,0,1-.8-1.1,1.655,1.655,0,0,1,.213-1.316l2.266-3.624-4.448-2.78a1.681,1.681,0,0,1-.765-1.075,1.653,1.653,0,0,1,.214-1.315,1.726,1.726,0,0,1,2.39-.551l10.4,6.5,1.324-2.119-10.366-6.479a1.7,1.7,0,0,1-.779-1.071,1.661,1.661,0,0,1,.228-1.319l3.174-5.078a1.726,1.726,0,0,1,2.39-.551l4.412,2.758,2.244-3.59a1.712,1.712,0,0,1,2.442-.519,1.726,1.726,0,0,1,.534,2.379l-2.243,3.59,4.517,2.824a1.721,1.721,0,0,1,.786,1.1,1.652,1.652,0,0,1-.2,1.312,1.8,1.8,0,0,1-2.447.564l-10.4-6.5-1.313,2.1,10.365,6.48a1.721,1.721,0,0,1,.786,1.1A1.654,1.654,0,0,1,187.212,364.485Z" fill="#fafafa"/>
          </g>
          <path id="Path_42" data-name="Path 42" d="M193.4,338.07a25.707,25.707,0,0,0-39.19,19.26h51.14A25.645,25.645,0,0,0,193.4,338.07Z" opacity="0.4"/>
        </g>
      </g>
      <g id="Group_32" data-name="Group 32">
        <path id="Path_43" data-name="Path 43" d="M273.4,133.667H86.923a8.508,8.508,0,0,0-6.994,13.353l20.824,30.066a8.509,8.509,0,0,0,6.994,3.664H252.578a8.51,8.51,0,0,0,6.995-3.664L280.4,147.02A8.508,8.508,0,0,0,273.4,133.667Z" fill="#407bff" opacity="0.2"/>
        <g id="Group_30" data-name="Group 30">
          <path id="Path_44" data-name="Path 44" d="M274.45,170.62H85.876l61.327,132.1h65.92Z" fill="#407bff"/>
          <rect id="Rectangle_65" data-name="Rectangle 65" width="1" height="14.831" transform="matrix(0.907, -0.421, 0.421, 0.907, 106.143, 222.588)" fill="#407bff"/>
          <rect id="Rectangle_66" data-name="Rectangle 66" width="1" height="6.94" transform="matrix(0.907, -0.421, 0.421, 0.907, 114.239, 240.029)" fill="#407bff"/>
          <path id="Path_45" data-name="Path 45" d="M274.45,170.62H85.876l61.327,132.1h65.92Z" opacity="0.3"/>
          <path id="Path_46" data-name="Path 46" d="M140.924,170.62H105.244l54.032,132.1h11.546Z" opacity="0.2"/>
        </g>
        <rect id="Rectangle_67" data-name="Rectangle 67" width="209.806" height="25.412" rx="4.771" transform="translate(75.26 145.208)" fill="#407bff"/>
        <g id="Group_31" data-name="Group 31">
          <path id="Path_47" data-name="Path 47" d="M203.437,350.63H156.889a6.615,6.615,0,0,1-6.6-6.126l-3.09-41.782h65.92L210.032,344.5A6.613,6.613,0,0,1,203.437,350.63Z" fill="#407bff"/>
          <path id="Path_48" data-name="Path 48" d="M203.437,350.63H156.889a6.615,6.615,0,0,1-6.6-6.126l-3.09-41.782h65.92L210.032,344.5A6.613,6.613,0,0,1,203.437,350.63Z" opacity="0.2"/>
        </g>
      </g>
      <g id="Group_92-3" data-name="Group 92" transform="translate(-29.214 -80.644)">
        <g id="Group_89-3" data-name="Group 89">
          <path id="Path_152-3" data-name="Path 152" d="M230.133,207.123H181.138A2.9,2.9,0,0,1,178.2,203.9l3.691-42.188a3.584,3.584,0,0,1,3.5-3.219h48.995a2.9,2.9,0,0,1,2.937,3.219L233.633,203.9A3.583,3.583,0,0,1,230.133,207.123Z" fill="#407bff"/>
          <path id="Path_153-3" data-name="Path 153" d="M230.133,207.123H181.138A2.9,2.9,0,0,1,178.2,203.9l3.691-42.188a3.584,3.584,0,0,1,3.5-3.219h48.995a2.9,2.9,0,0,1,2.937,3.219L233.633,203.9A3.583,3.583,0,0,1,230.133,207.123Z" fill="#fff" opacity="0.4"/>
        </g>
        <path id="Path_154-3" data-name="Path 154" d="M230.308,205.122a1.358,1.358,0,0,0,1.325-1.218l3.691-42.188a1.1,1.1,0,0,0-1.112-1.219h-49a1.359,1.359,0,0,0-1.325,1.219L180.2,203.9a1.1,1.1,0,0,0,1.112,1.218Z" fill="#fff" opacity="0.7"/>
        <g id="Group_90-3" data-name="Group 90">
          <path id="Path_155-3" data-name="Path 155" d="M196.257,180.316l-16.019,23.168-.037.42a1.1,1.1,0,0,0,1.112,1.218h27.755Z" fill="#407bff"/>
          <path id="Path_156-3" data-name="Path 156" d="M196.257,180.316l-16.019,23.168-.037.42a1.1,1.1,0,0,0,1.112,1.218h27.755Z" fill="#fff" opacity="0.3"/>
        </g>
        <path id="Path_157-3" data-name="Path 157" d="M231.775,202.286l-13.414-25.469-19.86,28.3h31.807a1.358,1.358,0,0,0,1.325-1.218Z" fill="#407bff"/>
        <g id="Group_91-3" data-name="Group 91">
          <path id="Path_158-3" data-name="Path 158" d="M213.183,172.315a5.012,5.012,0,0,1-4.9,4.5,4.058,4.058,0,0,1-4.108-4.5,5.012,5.012,0,0,1,4.9-4.5A4.06,4.06,0,0,1,213.183,172.315Z" fill="#407bff"/>
          <path id="Path_159-3" data-name="Path 159" d="M213.183,172.315a5.012,5.012,0,0,1-4.9,4.5,4.058,4.058,0,0,1-4.108-4.5,5.012,5.012,0,0,1,4.9-4.5A4.06,4.06,0,0,1,213.183,172.315Z" fill="#fff" opacity="0.4"/>
        </g>
      </g>
    </g>
  </g>
  <g id="Character" transform="translate(0 -54.953)">
    <g id="Group_44" data-name="Group 44">
      <g id="Group_34" data-name="Group 34">
        <path id="Path_49" data-name="Path 49" d="M330.962,407.878h-8.187l-.547-18.96h8.187Z" fill="#ffb573"/>
        <path id="Path_50" data-name="Path 50" d="M322.23,388.923l.28,9.773H330.7l-.28-9.773Z" opacity="0.2"/>
      </g>
      <g id="Group_35" data-name="Group 35">
        <path id="Path_51" data-name="Path 51" d="M394.262,378.124l-7.175,3.944-11.44-15.347,7.175-3.944Z" fill="#ffb573"/>
        <path id="Path_52" data-name="Path 52" d="M382.827,362.78l-7.178,3.945,5.9,7.909,7.178-3.946Z" opacity="0.2"/>
      </g>
      <path id="Path_53" data-name="Path 53" d="M363.1,175.724c-7.315-5.036-10.63-10.153-11.268-16.36,1.233,6.572,5.162,11.8,13.942,16.209a.5.5,0,0,0,.449-.894c-12.353-6.2-14.744-13.79-13.607-25.094.322-1.482.721-3.022,1.193-4.635,4-13.663-18.279-16.4-25.242-13.559-17.131,7-11.869,26.444-7.031,33.778s-11.426,12.256-2.327,33.222,39.378,20.444,48.045,9.55S375.362,184.169,363.1,175.724Z" fill="#263238"/>
      <path id="Path_54" data-name="Path 54" d="M318.4,184.173c-.1,1.368-.216,2.553-.386,3.8-.16,1.235-.345,2.461-.545,3.685-.4,2.447-.95,4.866-1.532,7.278a79.643,79.643,0,0,1-4.865,14.166l-.394.86c-.145.3-.206.486-.525,1.075a7.3,7.3,0,0,1-2.469,2.631,7.631,7.631,0,0,1-3.123,1.106,10.684,10.684,0,0,1-2.664,0,23.717,23.717,0,0,1-7.843-2.731,65.091,65.091,0,0,1-12.17-8.6l2.474-3.328c1.99,1.135,4.07,2.281,6.131,3.318a59.136,59.136,0,0,0,6.22,2.806A19.191,19.191,0,0,0,302.5,211.7c.788.033,1.251-.215,1.115-.22-.047-.005-.112.07-.1,0l.512-1.347a94.508,94.508,0,0,0,3.847-13.088c.494-2.238.894-4.5,1.276-6.764.379-2.236.678-4.6.9-6.713Z" fill="#ffb573"/>
      <g id="Group_36" data-name="Group 36">
        <path id="Path_55" data-name="Path 55" d="M312.706,174.155c-3.374.859-5.735,14.746-5.735,14.746l9.3,6.323s8.915-14.009,6.32-17.719C319.886,173.642,317.63,172.9,312.706,174.155Z" fill="#407bff"/>
        <path id="Path_56" data-name="Path 56" d="M312.706,174.155c-3.374.859-5.735,14.746-5.735,14.746l9.3,6.323s8.915-14.009,6.32-17.719C319.886,173.642,317.63,172.9,312.706,174.155Z" opacity="0.2"/>
      </g>
      <path id="Path_57" data-name="Path 57" d="M313.01,177.257l-2.592,14,5.226,3.544Z" opacity="0.2"/>
      <path id="Path_58" data-name="Path 58" d="M285.738,204.675l-5.006-7.838-2.824,7.832s3.473,3.947,6.787,3.172Z" fill="#ffb573"/>
      <path id="Path_59" data-name="Path 59" d="M275.4,193.9l-3.33,6.135,5.841,4.634,2.824-7.832Z" fill="#ffb573"/>
      <path id="Path_60" data-name="Path 60" d="M385.539,381.1l7.316-5.575a.649.649,0,0,1,.859.049l5.244,5.153a1.316,1.316,0,0,1-.161,1.954c-2.584,1.9-3.927,2.686-7.145,5.138-1.979,1.508-4.714,3.918-7.447,6-2.674,2.037-4.939-.509-3.987-1.621,4.267-4.987,3.919-7.115,4.538-9.869A2.141,2.141,0,0,1,385.539,381.1Z" fill="#263238"/>
      <path id="Path_61" data-name="Path 61" d="M322.495,406.93h9.2a.648.648,0,0,1,.653.559l1.048,7.278a1.315,1.315,0,0,1-1.312,1.456c-3.207-.055-4.753-.244-8.8-.244-2.488,0-9.636.259-13.072.259-3.361,0-3.62-3.4-2.189-3.706,6.416-1.38,10.942-3.283,13.1-5.1A2.136,2.136,0,0,1,322.495,406.93Z" fill="#263238"/>
      <g id="Group_37" data-name="Group 37">
        <path id="Path_62" data-name="Path 62" d="M312.706,174.155s-3.9,1.374,3.913,49.415H349.87c-.558-13.534-.573-21.879,5.9-49.652a98.038,98.038,0,0,0-14.12-1.86,105.707,105.707,0,0,0-15.1,0C320.06,172.65,312.706,174.155,312.706,174.155Z" fill="#407bff"/>
        <path id="Path_63" data-name="Path 63" d="M312.706,174.155s-3.9,1.374,3.913,49.415H349.87c-.558-13.534-.573-21.879,5.9-49.652a98.038,98.038,0,0,0-14.12-1.86,105.707,105.707,0,0,0-15.1,0C320.06,172.65,312.706,174.155,312.706,174.155Z" opacity="0.2"/>
      </g>
      <path id="Path_64" data-name="Path 64" d="M341.645,172.061a105.72,105.72,0,0,0-15.1,0c-1.81.16-3.69.4-5.46.65v.01c-.77,2.92-.62,7.02,2.36,12.34l1.72,3.071,3.26-1.31c2.42-.981,14.67-6.151,18.61-12.531l1.02-1.65C346.075,172.382,343.875,172.171,341.645,172.061Z" fill="#fff"/>
      <g id="Group_38" data-name="Group 38">
        <path id="Path_65" data-name="Path 65" d="M341.643,172.063l0-.005c-3.4-3.242-2.449-12.143-1.5-17l-9.269,7.914c.944,3.775,1.084,7.795-4.334,9.088l0,.005-.981.094c-1.206,2.285-1.513,5.8,1.375,10.95,0,0,13.246-5.332,16.694-10.918C342.975,172.136,342.309,172.094,341.643,172.063Z" fill="#ffb573"/>
        <path id="Path_66" data-name="Path 66" d="M336.37,158.285l-5.486,4.681a15.583,15.583,0,0,1,.465,2.68c2.07-.3,4.913-2.571,5.133-4.738A7.3,7.3,0,0,0,336.37,158.285Z" opacity="0.2"/>
      </g>
      <path id="Path_67" data-name="Path 67" d="M346.267,147.3c-2.424,7.756-3.285,11.09-8.258,14.152-7.481,4.605-16.477-.069-16.418-8.393.052-7.492,4.008-18.916,12.489-20.15A11.082,11.082,0,0,1,346.267,147.3Z" fill="#ffb573"/>
      <path id="Path_68" data-name="Path 68" d="M347.822,136.01a15.156,15.156,0,0,0-9.727-3.987,3.305,3.305,0,0,0-1.788-.824c-3.764-.764-8.038.246-9.931,2.644-1.724,2.182,4.164,3.46,8.4,1.724.6,6.683,6.248,20.42,11.623,19.18C353.429,153.125,353.487,141.246,347.822,136.01Z" fill="#263238"/>
      <path id="Path_69" data-name="Path 69" d="M316.619,223.57s-6.458,63.068-5.922,88.035c.559,25.97,10.075,85.2,10.075,85.2h11.071s-1.752-57.712-.774-83.217c1.067-27.8,9.9-90.017,9.9-90.017Z" fill="#263238"/>
      <path id="Path_70" data-name="Path 70" d="M332.8,397.2h-12.99l-.953-4.144,14.547-.507Z" fill="#407bff"/>
      <path id="Path_71" data-name="Path 71" d="M330.962,239.261c-8.167,16.43-1.64,46.4,1.248,57.552,1.481-16.747,3.978-37.218,5.925-52.251C336.9,236.056,334.728,231.687,330.962,239.261Z" opacity="0.2"/>
      <path id="Path_72" data-name="Path 72" d="M325.4,223.57s7.532,65.567,13.22,86.617c6.754,24.991,40.285,63.742,40.285,63.742l9.784-5.378s-23.261-43.5-28.425-56.669c-11.02-28.1-1.587-69.976-10.394-88.312Z" fill="#263238"/>
      <path id="Path_73" data-name="Path 73" d="M390.1,368.442l-12.138,6.672-3.39-3.105,13.924-8.493Z" fill="#407bff"/>
      <path id="Path_74" data-name="Path 74" d="M333.193,146.3c-.158.641-.625,1.077-1.045.974s-.63-.707-.472-1.348.625-1.077,1.045-.974S333.351,145.655,333.193,146.3Z" fill="#263238"/>
      <path id="Path_75" data-name="Path 75" d="M325.946,144.51c-.158.641-.626,1.077-1.045.974s-.631-.707-.473-1.348.626-1.078,1.045-.974S326.1,143.868,325.946,144.51Z" fill="#263238"/>
      <path id="Path_76" data-name="Path 76" d="M325.65,143.243l-1.431-.824S324.713,143.817,325.65,143.243Z" fill="#263238"/>
      <path id="Path_77" data-name="Path 77" d="M327.9,146.215a17.632,17.632,0,0,1-3.295,3.529,2.841,2.841,0,0,0,2.18.993Z" fill="#ed893e"/>
      <path id="Path_78" data-name="Path 78" d="M329.659,154.11a6.554,6.554,0,0,1-.962-.162.194.194,0,0,1-.142-.235.2.2,0,0,1,.234-.142,5.2,5.2,0,0,0,4.631-.965.194.194,0,0,1,.265.284A5.434,5.434,0,0,1,329.659,154.11Z" fill="#263238"/>
      <path id="Path_79" data-name="Path 79" d="M346.621,155.047a5.94,5.94,0,0,1-3.8,2.479c-2.049.369-2.879-1.512-2.146-3.343.66-1.649,2.522-3.828,4.5-3.366A2.667,2.667,0,0,1,346.621,155.047Z" fill="#ffb573"/>
      <path id="Path_80" data-name="Path 80" d="M336.467,145.537a.39.39,0,0,1-.344-.3c-.4-1.748-2.535-2.638-2.556-2.647a.388.388,0,0,1,.293-.718c.1.042,2.527,1.055,3.019,3.191a.39.39,0,0,1-.412.474Z" fill="#263238"/>
      <path id="Path_81" data-name="Path 81" d="M324.594,140.625a.388.388,0,0,1-.134-.736,3.845,3.845,0,0,1,3.539.022.388.388,0,0,1-.4.664h0a3.075,3.075,0,0,0-2.8.013A.386.386,0,0,1,324.594,140.625Z" fill="#263238"/>
      <path id="Path_82" data-name="Path 82" d="M359.591,183.452c1.01,4.955,1.734,9.843,2.307,14.828.306,2.482.522,4.983.689,7.5.1,1.255.147,2.522.2,3.787l.043,1.91.01.478.005.295c0,.239-.012.479-.033.717a5.219,5.219,0,0,1-1.383,2.984,5.8,5.8,0,0,1-2.11,1.395,8,8,0,0,1-1.626.428,13.094,13.094,0,0,1-2.522.12,29.575,29.575,0,0,1-4.155-.514,68.322,68.322,0,0,1-7.469-1.937c-2.407-.769-4.768-1.6-7.107-2.476-2.33-.919-4.628-1.832-6.92-2.891l1.39-3.906c2.347.567,4.725,1.175,7.094,1.7,2.361.568,4.727,1.092,7.083,1.54s4.7.871,6.956,1.1a22.575,22.575,0,0,0,3.184.151,5.473,5.473,0,0,0,1.15-.145c.141-.028.174-.068.148-.059a1.35,1.35,0,0,0-.581.395,2.406,2.406,0,0,0-.634,1.337,1.006,1.006,0,0,0-.018.257c0,.039-.011-.117-.015-.165l-.04-.443-.159-1.772-.4-3.563c-.283-2.38-.62-4.765-.961-7.156s-.739-4.778-1.137-7.167c-.371-2.383-.813-4.8-1.206-7.13Z" fill="#ffb573"/>
      <g id="Group_39" data-name="Group 39">
        <path id="Path_83" data-name="Path 83" d="M355.765,173.918C359.1,174.931,363.1,186.4,363.1,186.4l-12.924,9.241s-4.714-9.576-3.314-13.882C348.317,177.276,351.963,172.762,355.765,173.918Z" fill="#407bff"/>
        <path id="Path_84" data-name="Path 84" d="M355.765,173.918C359.1,174.931,363.1,186.4,363.1,186.4l-12.924,9.241s-4.714-9.576-3.314-13.882C348.317,177.276,351.963,172.762,355.765,173.918Z" opacity="0.2"/>
      </g>
      <path id="Path_85" data-name="Path 85" d="M382.776,384.55c-.033,0-.066,0-.1,0a1.1,1.1,0,0,1-.879-.624.663.663,0,0,1-.024-.668c.5-.92,3.447-1.151,3.781-1.174a.186.186,0,0,1,.186.1.191.191,0,0,1-.022.211C385.049,383.211,383.8,384.55,382.776,384.55Zm2.338-2.042c-1.177.127-2.737.445-3,.93a.277.277,0,0,0,.021.293.73.73,0,0,0,.576.428C383.267,384.207,384.153,383.6,385.114,382.508Z" fill="#407bff"/>
      <path id="Path_86" data-name="Path 86" d="M385.293,382.483c-1.017,0-2.883-.484-3.255-1.246a.676.676,0,0,1,.192-.826,1.009,1.009,0,0,1,.809-.291c1.186.087,2.624,1.955,2.684,2.035a.193.193,0,0,1,.025.192.2.2,0,0,1-.153.118A2.272,2.272,0,0,1,385.293,382.483Zm-2.342-1.979a.619.619,0,0,0-.451.185c-.179.174-.154.294-.113.378.251.515,1.794,1.008,2.79,1.031-.512-.6-1.46-1.539-2.166-1.591Z" fill="#407bff"/>
      <path id="Path_87" data-name="Path 87" d="M319.421,408.361a3.076,3.076,0,0,1-1.986-.5,1.074,1.074,0,0,1-.35-.944.627.627,0,0,1,.329-.516c1-.549,4.267,1.117,4.635,1.309a.193.193,0,0,1,.1.2.2.2,0,0,1-.154.163A13.973,13.973,0,0,1,319.421,408.361Zm-1.459-1.694a.762.762,0,0,0-.362.071.238.238,0,0,0-.128.21.7.7,0,0,0,.222.621c.5.446,1.844.524,3.659.223A10.544,10.544,0,0,0,317.962,406.667Z" fill="#407bff"/>
      <path id="Path_88" data-name="Path 88" d="M321.96,408.072a.181.181,0,0,1-.079-.017c-.977-.441-2.907-2.207-2.756-3.134.036-.22.191-.493.729-.548a1.407,1.407,0,0,1,1.073.335c1.03.857,1.219,3.061,1.226,3.155a.193.193,0,0,1-.081.174A.2.2,0,0,1,321.96,408.072Zm-1.951-3.319a1.142,1.142,0,0,0-.116.006c-.354.036-.377.178-.385.224-.091.557,1.22,1.946,2.214,2.549a4.493,4.493,0,0,0-1.043-2.526A1.019,1.019,0,0,0,320.009,404.753Z" fill="#407bff"/>
      <path id="Path_89" data-name="Path 89" d="M332.9,145.029l-1.431-.823S331.96,145.6,332.9,145.029Z" fill="#263238"/>
      <path id="Path_90" data-name="Path 90" d="M350.368,221.618l.85,2.977c.117.23-.157.466-.541.466H316.454c-.3,0-.548-.147-.567-.335l-.3-2.977c-.02-.206.24-.381.567-.381h33.673A.605.605,0,0,1,350.368,221.618Z" fill="#407bff"/>
      <g id="Group_40" data-name="Group 40">
        <path id="Path_91" data-name="Path 91" d="M345.846,225.383h.9c.179,0,.316-.092.3-.205l-.423-3.867c-.013-.114-.17-.206-.349-.206h-.9c-.18,0-.317.092-.3.206l.423,3.867C345.509,225.291,345.666,225.383,345.846,225.383Z" fill="#263238"/>
        <path id="Path_92" data-name="Path 92" d="M318.989,225.383h.9c.179,0,.316-.092.3-.205l-.423-3.867c-.013-.114-.17-.206-.349-.206h-.9c-.18,0-.317.092-.3.206l.423,3.867C318.652,225.291,318.809,225.383,318.989,225.383Z" fill="#263238"/>
        <path id="Path_93" data-name="Path 93" d="M332.417,225.383h.9c.18,0,.317-.092.3-.205l-.423-3.867c-.012-.114-.169-.206-.349-.206h-.9c-.179,0-.316.092-.3.206l.423,3.867C332.081,225.291,332.238,225.383,332.417,225.383Z" fill="#263238"/>
      </g>
      <path id="Path_96" data-name="Path 96" d="M331.864,206.365l-6.2-6.314-.787,8.289s4.346,2.958,7.363,1.383Z" fill="#ffb573"/>
      <path id="Path_97" data-name="Path 97" d="M318.844,199.153l-.283,6.975,6.321,2.212.786-8.289Z" fill="#ffb573"/>
      <g id="Group_92-4" data-name="Group 92" transform="translate(94.625 33.67)">
        <g id="Group_89-4" data-name="Group 89" transform="translate(178.189 158.497)">
          <path id="Path_152-4" data-name="Path 152" d="M221.025,202.69h-40.4a2.55,2.55,0,0,1-2.422-2.926l3.044-38.342a3.086,3.086,0,0,1,2.886-2.926h40.4a2.549,2.549,0,0,1,2.422,2.926l-3.044,38.342A3.086,3.086,0,0,1,221.025,202.69Z" transform="translate(-178.189 -158.497)" fill="#407bff"/>
          <path id="Path_153-4" data-name="Path 153" d="M221.025,202.69h-40.4a2.55,2.55,0,0,1-2.422-2.926l3.044-38.342a3.086,3.086,0,0,1,2.886-2.926h40.4a2.549,2.549,0,0,1,2.422,2.926l-3.044,38.342A3.086,3.086,0,0,1,221.025,202.69Z" transform="translate(-178.189 -158.497)" fill="#fff" opacity="0.4"/>
        </g>
        <path id="Path_154-4" data-name="Path 154" d="M220.881,200.689a1.155,1.155,0,0,0,1.076-1.1l3-38a.956.956,0,0,0-.9-1.1H184.273a1.156,1.156,0,0,0-1.076,1.1l-3,38a.955.955,0,0,0,.9,1.1Z" transform="translate(0)" fill="#fff" opacity="0.7"/>
        <g id="Group_90-4" data-name="Group 90" transform="translate(180.196 180.594)">
          <path id="Path_155-4" data-name="Path 155" d="M196.257,180.316l-16.019,18.769-.037.34c-.059.544.44.987,1.112.987h27.755Z" transform="translate(-180.196 -180.316)" fill="#407bff"/>
          <path id="Path_156-4" data-name="Path 156" d="M196.257,180.316l-16.019,18.769-.037.34c-.059.544.44.987,1.112.987h27.755Z" transform="translate(-180.196 -180.316)" fill="#fff" opacity="0.3"/>
        </g>
        <path id="Path_157-4" data-name="Path 157" d="M230.936,194.9,217.86,176.817l-19.359,20.1h31.005a1.231,1.231,0,0,0,1.292-.865Z" transform="translate(-10.371 3.777)" fill="#407bff"/>
        <g id="Group_91-4" data-name="Group 91" transform="translate(198.786 166.771)">
          <path id="Path_158-4" data-name="Path 158" d="M213.183,172.315a5.012,5.012,0,0,1-4.9,4.5,4.058,4.058,0,0,1-4.108-4.5,5.012,5.012,0,0,1,4.9-4.5A4.06,4.06,0,0,1,213.183,172.315Z" transform="translate(-204.161 -167.813)" fill="#407bff"/>
          <path id="Path_159-4" data-name="Path 159" d="M213.183,172.315a5.012,5.012,0,0,1-4.9,4.5,4.058,4.058,0,0,1-4.108-4.5,5.012,5.012,0,0,1,4.9-4.5A4.06,4.06,0,0,1,213.183,172.315Z" transform="translate(-204.161 -167.813)" fill="#fff" opacity="0.4"/>
        </g>
      </g>
    </g>
  </g>
</svg>
