<svg id="Capa_1" enable-background="new 0 0 512 512" height="512" viewBox="0 0 512 512" width="512" xmlns="http://www.w3.org/2000/svg"><g><path d="m504.5 417.762h-77.405c5.58-6.773 8.936-15.443 8.936-24.883 0-12.868-6.235-24.306-15.842-31.455 1.862-1.766 3.5-3.814 4.837-6.13 4.842-8.387 4.842-18.401-.023-26.827l-24.639-42.078c6.215-5.293 10.168-13.167 10.168-21.951v-70.295c0-15.898-12.934-28.833-28.832-28.833h-110.736v-85.733h24.626c8.391 0 15.217-6.826 15.217-15.217v-30.912c0-8.391-6.827-15.217-15.217-15.217h-24.99c-4.142 0-7.5 3.358-7.5 7.5s3.358 7.5 7.5 7.5h24.99c.12 0 .217.097.217.217v30.911c0 .12-.098.217-.217.217h-76.054c-7.648 0-13.871-6.222-13.871-13.871v-3.604c0-7.648 6.222-13.871 13.871-13.871h21.064c4.142 0 7.5-3.358 7.5-7.5s-3.358-7.5-7.5-7.5h-21.064c-15.919 0-28.871 12.951-28.871 28.871v3.604c0 15.919 12.951 28.871 28.871 28.871h.414v85.733h-36.087c-4.142 0-7.5 3.358-7.5 7.5s3.358 7.5 7.5 7.5h197.836c7.628 0 13.832 6.205 13.832 13.833v70.295c0 5.616-3.369 10.451-8.187 12.616-.122.051-.243.105-.363.164-1.629.676-3.412 1.053-5.282 1.053h-261.926c-7.627 0-13.832-6.205-13.832-13.833v-70.295c0-7.627 6.205-13.833 13.832-13.833h34.09c4.142 0 7.5-3.358 7.5-7.5s-3.358-7.5-7.5-7.5h-34.09c-15.898 0-28.832 12.934-28.832 28.833v70.295c0 8.685 3.865 16.479 9.959 21.769l-24.244 41.992c-4.842 8.387-4.842 18.401 0 26.788 1.316 2.279 2.922 4.298 4.747 6.045-9.673 7.143-15.961 18.619-15.961 31.54 0 9.585 3.464 18.373 9.199 25.19h-67.141c-4.142 0-7.5 3.358-7.5 7.5s3.358 7.5 7.5 7.5h497c4.142 0 7.5-3.358 7.5-7.5s-3.358-7.499-7.5-7.499zm-269.55-338.185h21.014v85.733h-21.014zm-32.831 288.804c13.339 0 24.191 10.852 24.191 24.19 0 13.339-10.852 24.19-24.191 24.19s-24.19-10.852-24.19-24.19c0-13.339 10.851-24.19 24.19-24.19zm23.349-7.265c1.862-1.766 3.5-3.813 4.837-6.129 4.842-8.387 4.842-18.401 0-26.789l-20.166-34.929h81.581l-20.343 35.236c-4.842 8.387-4.842 18.401 0 26.788 1.316 2.279 2.922 4.298 4.747 6.045-9.673 7.143-15.961 18.62-15.961 31.54 0 9.44 3.356 18.111 8.936 24.883h-36.989c5.735-6.817 9.199-15.605 9.199-25.19.001-12.868-6.235-24.305-15.841-31.455zm98.076 31.762c0 13.339-10.852 24.19-24.191 24.19s-24.19-10.852-24.19-24.19c0-13.339 10.852-24.191 24.19-24.191s24.191 10.852 24.191 24.191zm6.608-24.191h35.889c-5.248 6.668-8.391 15.067-8.391 24.191 0 9.44 3.356 18.111 8.936 24.883h-36.978c5.58-6.773 8.936-15.443 8.936-24.883 0-9.124-3.143-17.523-8.392-24.191zm66.688 48.382c-13.339 0-24.19-10.852-24.19-24.19 0-13.339 10.852-24.191 24.19-24.191 13.339 0 24.191 10.852 24.191 24.191-.001 13.338-10.852 24.19-24.191 24.19zm-102.265-63.382c-4.261 0-8.078-2.203-10.208-5.894-2.131-3.69-2.131-8.097 0-11.788l5.447-9.434h116.698l5.524 9.434c2.131 3.69 2.131 8.097 0 11.788-2.131 3.69-5.947 5.894-10.209 5.894zm92.171-60.868 10.982 18.754h-99.254l10.074-17.45c.161-.278.294-.564.416-.853h72.735c1.722 0 3.407-.16 5.047-.451zm-266.973.451h73.045l10.39 17.995h-99.455l10.68-18.499c1.732.326 3.515.504 5.34.504zm-19.918 60.111c-4.262 0-8.078-2.203-10.209-5.894-2.131-3.69-2.131-8.097 0-11.788l5.447-9.434h116.775l5.447 9.434c2.131 3.691 2.131 8.098 0 11.789-2.131 3.69-5.947 5.894-10.208 5.894h-107.252zm4.777 15c13.339 0 24.191 10.852 24.191 24.19 0 13.339-10.852 24.19-24.191 24.19s-24.19-10.852-24.19-24.19c0-13.339 10.852-24.19 24.19-24.19zm30.8 0h35.888c-5.248 6.667-8.391 15.066-8.391 24.19 0 9.585 3.464 18.373 9.199 25.19h-37.505c5.735-6.817 9.2-15.605 9.2-25.19 0-9.124-3.143-17.523-8.391-24.19z"/><path d="m136.651 478.769h-99.065c-4.142 0-7.5 3.358-7.5 7.5s3.358 7.5 7.5 7.5h99.064c4.142 0 7.5-3.358 7.5-7.5.001-4.142-3.357-7.5-7.499-7.5z"/><path d="m487.949 478.769h-24.862c-4.142 0-7.5 3.358-7.5 7.5s3.358 7.5 7.5 7.5h24.862c4.142 0 7.5-3.358 7.5-7.5s-3.358-7.5-7.5-7.5z"/><path d="m422.472 478.769h-25.726c-.633 0-1.148-.515-1.148-1.147 0-8.904-7.244-16.148-16.147-16.148h-44.105c-8.904 0-16.148 7.244-16.148 16.148 0 .633-.515 1.147-1.147 1.147h-19.62c-4.142 0-7.5 3.358-7.5 7.5s3.358 7.5 7.5 7.5h19.62c8.904 0 16.147-7.244 16.147-16.147 0-.633.515-1.148 1.148-1.148h44.105c.633 0 1.147.515 1.147 1.148 0 8.904 7.244 16.147 16.148 16.147h25.726c4.142 0 7.5-3.358 7.5-7.5s-3.358-7.5-7.5-7.5z"/><path d="m204.508 205.899h-40.273c-4.142 0-7.5 3.358-7.5 7.5s3.358 7.5 7.5 7.5h40.273c4.142 0 7.5-3.358 7.5-7.5s-3.358-7.5-7.5-7.5z"/><path d="m204.508 234.172h-40.273c-4.142 0-7.5 3.358-7.5 7.5s3.358 7.5 7.5 7.5h40.273c4.142 0 7.5-3.358 7.5-7.5s-3.358-7.5-7.5-7.5z"/><path d="m296.964 220.899h40.273c4.142 0 7.5-3.358 7.5-7.5s-3.358-7.5-7.5-7.5h-40.273c-4.142 0-7.5 3.358-7.5 7.5s3.358 7.5 7.5 7.5z"/><path d="m296.964 249.172h40.273c4.142 0 7.5-3.358 7.5-7.5s-3.358-7.5-7.5-7.5h-40.273c-4.142 0-7.5 3.358-7.5 7.5s3.358 7.5 7.5 7.5z"/></g></svg>