<?xml version="1.0" encoding="iso-8859-1"?>
<!-- Generator: Adobe Illustrator 19.0.0, SVG Export Plug-In . SVG Version: 6.00 Build 0)  -->
<svg version="1.1" id="Capa_1" xmlns="http://www.w3.org/2000/svg" xmlns:xlink="http://www.w3.org/1999/xlink" x="0px" y="0px"
	 viewBox="0 0 480 480" style="enable-background:new 0 0 480 480;" xml:space="preserve">
<g>
	<g>
		<path d="M108,357.032c-17.103,0-30.968,13.865-30.968,30.968c0,17.103,13.865,30.968,30.968,30.968
			c17.094-0.022,30.946-13.874,30.968-30.968C138.968,370.896,125.103,357.032,108,357.032z M108,402.967
			c-8.267,0-14.968-6.701-14.968-14.968c0-8.267,6.701-14.968,14.968-14.968c8.261,0.013,14.955,6.707,14.968,14.968
			C122.968,396.266,116.267,402.967,108,402.967z"/>
	</g>
</g>
<g>
	<g>
		<path d="M169.36,392.423v-8.8l4-3.624c2.546-2.268,3.374-5.9,2.064-9.048l-7.712-18.616c-1.316-3.11-4.426-5.075-7.8-4.928
			l-5.408,0.272l-6.192-6.192l0.272-5.408c0.173-3.381-1.8-6.504-4.928-7.8l-18.616-7.712c-3.128-1.295-6.732-0.481-9,2.032
			l-3.624,4h-8.8l-3.624-4c-2.268-2.513-5.872-3.327-9-2.032l-18.616,7.712c-3.128,1.296-5.101,4.419-4.928,7.8l0.272,5.408
			l-6.192,6.192l-5.408-0.272c-3.388-0.2-6.526,1.782-7.8,4.928l-7.712,18.616c-1.295,3.128-0.481,6.732,2.032,9l4,3.624v8.8
			l-4,3.624c-2.528,2.261-3.355,5.871-2.064,9.008l7.712,18.616c1.278,3.142,4.413,5.123,7.8,4.928l5.408-0.272l6.192,6.192
			l-0.272,5.408c-0.173,3.381,1.8,6.504,4.928,7.8l18.616,7.712c3.128,1.295,6.732,0.481,9-2.032l3.624-4h8.8l3.624,4
			c1.518,1.682,3.678,2.641,5.944,2.64c1.046,0.012,2.084-0.181,3.056-0.568l18.616-7.712c3.128-1.295,5.101-4.419,4.928-7.8
			l-0.272-5.408l6.192-6.192l5.408,0.272c3.373,0.144,6.482-1.82,7.8-4.928l7.712-18.616c1.295-3.128,0.481-6.732-2.032-9
			L169.36,392.423z M155.96,401.896l2.464,2.232l-3.392,8.184l-3.32-0.168c-2.261-0.124-4.467,0.723-6.064,2.328l-11.2,11.2
			c-1.599,1.601-2.444,3.804-2.328,6.064l0.168,3.32l-8.184,3.392l-2.232-2.464c-1.515-1.683-3.672-2.645-5.936-2.648h-15.872
			c-2.261-0.003-4.417,0.95-5.936,2.624l-2.232,2.464l-8.184-3.392l0.168-3.32c0.116-2.26-0.729-4.463-2.328-6.064l-11.2-11.2
			c-1.598-1.604-3.803-2.451-6.064-2.328l-3.32,0.168l-3.392-8.184l2.464-2.232c1.683-1.515,2.645-3.672,2.648-5.936v-15.872
			c-0.003-2.264-0.965-4.421-2.648-5.936l-2.464-2.232l3.392-8.184l3.32,0.168c2.261,0.126,4.468-0.722,6.064-2.328l11.2-11.2
			c1.599-1.601,2.444-3.804,2.328-6.064l-0.168-3.32l8.184-3.392l2.232,2.464c1.515,1.683,3.672,2.645,5.936,2.648h15.872
			c2.264-0.003,4.421-0.965,5.936-2.648l2.232-2.464l8.184,3.392l-0.168,3.32c-0.116,2.26,0.729,4.463,2.328,6.064l11.2,11.2
			c1.595,1.608,3.803,2.456,6.064,2.328l3.32-0.168l3.392,8.184l-2.464,2.232c-1.683,1.515-2.645,3.672-2.648,5.936v15.896
			C153.315,398.224,154.277,400.381,155.96,401.896z"/>
	</g>
</g>
<g>
	<g>
		<path d="M315.696,357.032c-17.103,0.004-30.964,13.873-30.96,30.976c0.004,17.103,13.873,30.964,30.976,30.96
			c17.091-0.026,30.938-13.877,30.96-30.968c0-0.003,0-0.005,0-0.008C346.668,370.888,332.799,357.027,315.696,357.032z
			 M330.672,388.008c-0.004,8.267-6.709,14.964-14.976,14.96c-8.267-0.004-14.964-6.709-14.96-14.976
			c0.004-8.267,6.709-14.964,14.976-14.96c8.258,0.018,14.947,6.71,14.96,14.968C330.672,388.002,330.672,388.005,330.672,388.008z"
			/>
	</g>
</g>
<g>
	<g>
		<path d="M377.08,392.415v-8.8l4-3.624c2.513-2.268,3.327-5.872,2.032-9l-7.712-18.616c-1.307-3.118-4.423-5.087-7.8-4.928
			l-5.408,0.272L356,341.528l0.272-5.408c0.173-3.381-1.801-6.505-4.928-7.8l-18.616-7.712c-3.128-1.295-6.732-0.481-9,2.032
			l-3.632,4h-8.8l-3.632-4c-2.268-2.513-5.872-3.327-9-2.032l-18.608,7.712c-3.128,1.295-5.101,4.419-4.928,7.8l0.272,5.408
			l-6.192,6.192l-5.408-0.272c-3.385-0.188-6.516,1.791-7.8,4.928l-7.712,18.584c-1.295,3.128-0.481,6.732,2.032,9l4,3.624v8.8
			l-4,3.624c-2.513,2.268-3.327,5.872-2.032,9L256,423.624c1.294,3.125,4.414,5.098,7.792,4.928l5.408-0.272l6.192,6.192
			l-0.272,5.408c-0.173,3.381,1.8,6.505,4.928,7.8l18.608,7.712c3.128,1.295,6.732,0.481,9-2.032l3.632-4h8.8l3.632,4
			c1.518,1.682,3.678,2.641,5.944,2.64c1.049,0.011,2.09-0.185,3.064-0.576l18.616-7.712c3.128-1.295,5.101-4.419,4.928-7.8
			L356,434.504l6.192-6.192l5.408,0.272c3.376,0.156,6.491-1.812,7.8-4.928l7.712-18.616c1.295-3.128,0.481-6.732-2.032-9
			L377.08,392.415z M363.664,401.896l2.472,2.232l-3.392,8.184l-3.32-0.168c-2.26-0.116-4.463,0.729-6.064,2.328l-11.2,11.2
			c-1.599,1.601-2.444,3.804-2.328,6.064l0.168,3.32l-8.184,3.392l-2.232-2.472c-1.516-1.68-3.673-2.639-5.936-2.64h-15.872
			c-2.263-0.006-4.423,0.948-5.944,2.624l-2.224,2.464l-8.184-3.392l0.168-3.32c0.116-2.26-0.729-4.463-2.328-6.064l-11.2-11.2
			c-1.601-1.599-3.804-2.444-6.064-2.328l-3.32,0.12l-3.392-8.184l2.464-2.232c1.68-1.516,2.639-3.673,2.64-5.936v-15.872
			c-0.001-2.263-0.96-4.42-2.64-5.936l-2.464-2.232l3.392-8.184l3.32,0.168c2.26,0.116,4.463-0.729,6.064-2.328l11.2-11.2
			c1.599-1.601,2.444-3.804,2.328-6.064l-0.168-3.32l8.184-3.392l2.224,2.464c1.517,1.685,3.677,2.647,5.944,2.648h15.888
			c2.263-0.001,4.42-0.96,5.936-2.64l2.216-2.424l8.184,3.392l-0.168,3.32c-0.116,2.26,0.729,4.463,2.328,6.064l11.2,11.2
			c1.598,1.604,3.803,2.451,6.064,2.328l3.32-0.168l3.392,8.184l-2.472,2.232c-1.68,1.516-2.639,3.673-2.64,5.936v15.896
			C361.025,398.223,361.984,400.379,363.664,401.896z"/>
	</g>
</g>
<g>
	<g>
		<rect x="188.664" y="376.64" width="54.664" height="16"/>
	</g>
</g>
<g>
	<g>
		<path d="M472,168H56c-2.334,0-4.552,1.02-6.072,2.792l-48,56C0.684,228.242,0,230.089,0,232v152c0,4.418,3.582,8,8,8h24v-16H16
			V234.96L59.68,184H464v101.832L411.408,376H392v16h24c2.852-0.006,5.486-1.53,6.912-4l56-96c0.708-1.215,1.083-2.594,1.088-4V176
			C480,171.581,476.418,168,472,168z"/>
	</g>
</g>
<g>
	<g>
		<rect x="32" y="320" width="16" height="16"/>
	</g>
</g>
<g>
	<g>
		<path d="M440,200H320c-4.418,0-8,3.582-8,8v88c0,4.418,3.582,8,8,8h29.312l52.2,39.496c1.385,1.039,3.069,1.6,4.8,1.6
			c2.852-0.006,5.486-1.53,6.912-4l33.688-57.752c0.708-1.215,1.083-2.594,1.088-4V208C448,203.581,444.418,200,440,200z
			 M432,277.184l-28.088,48.072L356.8,289.6c-1.385-1.039-3.069-1.6-4.8-1.6h-24v-72h104V277.184z"/>
	</g>
</g>
<g>
	<g>
		<path d="M70.72,200c-2.334,0-4.552,1.02-6.072,2.792l-30.72,35.84c-1.242,1.448-1.926,3.292-1.928,5.2V304h16v-57.2L74.4,216H287
			v-16H70.72z"/>
	</g>
</g>
<g>
	<g>
		<path d="M149.656,290.344c-1.5-1.5-3.534-2.344-5.656-2.344H72v16h68.688l45.656,45.656l11.312-11.312L149.656,290.344z"/>
	</g>
</g>
<g>
	<g>
		<path d="M332.8,121.6l-32-24c-1.385-1.039-3.069-1.6-4.8-1.6h-96c-1.731,0-3.415,0.561-4.8,1.6l-32,24
			c-2.014,1.511-3.2,3.882-3.2,6.4v48c0,4.418,3.582,8,8,8h160c4.418,0,8-3.582,8-8v-48C336,125.481,334.814,123.11,332.8,121.6z
			 M320,168H176v-36l26.664-20h90.672L320,132V168z"/>
	</g>
</g>
<g>
	<g>
		<rect x="400" y="24" width="16" height="120"/>
	</g>
</g>
<g>
	<g>
		<rect x="392" y="64" width="32" height="16"/>
	</g>
</g>
<g>
	<g>
		<path d="M432,136h-48c-4.418,0-8,3.582-8,8v32h16v-24h32v24h16v-32C440,139.581,436.418,136,432,136z"/>
	</g>
</g>
<g>
	<g>
		<rect x="80" y="128" width="16" height="48"/>
	</g>
</g>
<g>
	<g>
		<path d="M136,80H72c-4.418,0-8,3.582-8,8v40c0,4.418,3.582,8,8,8h64c4.418,0,8-3.582,8-8V88C144,83.581,140.418,80,136,80z
			 M128,120H80V96h48V120z"/>
	</g>
</g>
<g>
	<g>
		<rect x="112" y="128" width="16" height="48"/>
	</g>
</g>
<g>
</g>
<g>
</g>
<g>
</g>
<g>
</g>
<g>
</g>
<g>
</g>
<g>
</g>
<g>
</g>
<g>
</g>
<g>
</g>
<g>
</g>
<g>
</g>
<g>
</g>
<g>
</g>
<g>
</g>
</svg>
