<?xml version="1.0" encoding="iso-8859-1"?>
<!-- Generator: Adobe Illustrator 19.0.0, SVG Export Plug-In . SVG Version: 6.00 Build 0)  -->
<svg version="1.1" id="Capa_1" xmlns="http://www.w3.org/2000/svg" xmlns:xlink="http://www.w3.org/1999/xlink" x="0px" y="0px"
	 viewBox="0 0 511.998 511.998" style="enable-background:new 0 0 511.998 511.998;" xml:space="preserve">
<g>
	<g>
		<path d="M272.639,87.013c-4.444-4.444-10.355-6.894-16.642-6.894c-6.287,0-12.195,2.449-16.64,6.894
			c-2.929,2.929-2.929,7.679,0,10.607c2.929,2.929,7.679,2.929,10.607,0c1.612-1.611,3.754-2.499,6.034-2.499
			s4.421,0.888,6.034,2.499c1.464,1.465,3.384,2.197,5.303,2.197s3.839-0.732,5.304-2.197
			C275.568,94.69,275.568,89.941,272.639,87.013z"/>
	</g>
</g>
<g>
	<g>
		<path d="M329.328,30.325c-40.434-40.434-106.225-40.434-146.659,0c-2.929,2.929-2.929,7.679,0,10.607
			c2.929,2.929,7.679,2.929,10.608,0c34.585-34.584,90.859-34.584,125.444,0c1.464,1.465,3.384,2.197,5.304,2.197
			s3.839-0.732,5.304-2.197C332.257,38.003,332.257,33.254,329.328,30.325z"/>
	</g>
</g>
<g>
	<g>
		<path d="M300.984,58.669c-24.805-24.805-65.165-24.805-89.97,0c-2.929,2.929-2.929,7.678,0,10.607
			c2.928,2.929,7.678,2.929,10.607,0c18.956-18.956,49.8-18.956,68.755,0c1.465,1.465,3.384,2.197,5.304,2.197
			c1.919,0,3.839-0.732,5.304-2.197C303.914,66.347,303.914,61.597,300.984,58.669z"/>
	</g>
</g>
<g>
	<g>
		<path d="M448.404,304.592h-49.969l-10.961-54.805c-2.939-14.696-15.952-25.363-30.939-25.363h-36.917v-17.066h32.584
			c12.977,0,23.534-10.558,23.534-23.535v-32.067c0-12.977-10.558-23.534-23.534-23.534H227.337
			c-5.427-9.563-15.696-16.034-27.456-16.034c-11.759,0-22.029,6.471-27.456,16.034h-12.629c-12.977,0-23.534,10.558-23.534,23.534
			v32.067c0,12.977,10.558,23.535,23.534,23.535h32.584v17.066h-36.917c-14.987,0-28,10.667-30.939,25.363l-10.961,54.805H63.594
			c-8.557,0-15.517,6.961-15.517,15.517v41.671c0,7.33,4.997,13.558,12.151,15.148l3.882,0.862v110.673
			c0,12.977,10.558,23.534,23.534,23.534h80.17c12.977,0,23.534-10.558,23.534-23.534v-40.601h33.43
			c1.653,9.104,9.623,16.034,19.196,16.034h24.05c9.573,0,17.543-6.931,19.196-16.034h33.43v40.601
			c0,12.977,10.558,23.534,23.534,23.534h80.169c12.977,0,23.534-10.558,23.534-23.534V377.791l3.882-0.862
			c7.155-1.59,12.151-7.819,12.151-15.148v-41.671C463.922,311.554,456.961,304.592,448.404,304.592z M199.881,127.188
			c9.126,0,16.55,7.425,16.55,16.551s-7.424,16.55-16.55,16.55s-16.55-7.424-16.55-16.55S190.755,127.188,199.881,127.188z
			 M159.796,192.357c-4.704,0-8.533-3.828-8.533-8.534v-32.067c0-4.704,3.828-8.533,8.533-8.533h8.546
			c-0.003,0.173-0.013,0.343-0.013,0.517c0,17.398,14.153,31.551,31.551,31.551s31.551-14.153,31.551-31.551
			c0-0.173-0.01-0.344-0.013-0.517H352.2c4.705,0,8.533,3.828,8.533,8.533v32.067c0,4.705-3.828,8.534-8.533,8.534H159.796z
			 M304.617,207.358v17.066h-97.235v-17.066H304.617z M135.481,271.493h74.577l3.56,14.241
			c2.624,10.496,12.012,17.827,22.832,17.827h39.098c10.819,0,20.208-7.331,22.832-17.827l3.56-14.241h26.211
			c4.142,0,7.501-3.358,7.501-7.501s-3.358-7.501-7.501-7.501H138.481l0.752-3.762c1.542-7.709,8.367-13.304,16.229-13.304h201.073
			c7.862,0,14.687,5.596,16.229,13.304l0.752,3.761h-13.3c-4.142,0-7.501,3.358-7.501,7.501s3.358,7.501,7.501,7.501h16.301
			l6.62,33.1h-63.003c-8.557,0-15.517,6.961-15.517,15.517v0.517H207.38v-0.517c0-8.557-6.961-15.517-15.517-15.517h-63.001
			L135.481,271.493z M225.521,271.493h60.956l-2.65,10.603c-0.952,3.805-4.355,6.463-8.279,6.463H236.45
			c-3.922,0-7.327-2.658-8.279-6.463L225.521,271.493z M176.347,488.465c0,4.704-3.828,8.533-8.533,8.533h-80.17
			c-4.705,0-8.533-3.828-8.533-8.533v-8.533h97.235V488.465z M176.347,464.93H79.112v-17.066h97.235V464.93z M176.347,432.862
			H79.112v-17.066h8.533c4.142,0,7.501-3.358,7.501-7.501c0-4.143-3.358-7.501-7.501-7.501h-8.533v-19.67l88.514,19.67h-47.911
			c-4.142,0-7.501,3.357-7.501,7.501c0,4.142,3.358,7.501,7.501,7.501h56.632V432.862z M63.482,362.284
			c-0.238-0.053-0.405-0.26-0.405-0.504v-41.671c0-0.284,0.231-0.516,0.516-0.516h128.27c0.285,0,0.516,0.232,0.516,0.516v70.175
			c0,0.074,0,0.248-0.193,0.403c-0.193,0.155-0.363,0.117-0.435,0.101L63.482,362.284z M224.448,432.862h-33.1v-17.066h33.1V432.862
			z M272.549,444.371c0,2.495-2.029,4.524-4.524,4.524h-24.051c-2.495,0-4.524-2.029-4.524-4.524v-40.084
			c0-2.495,2.029-4.524,4.524-4.524h24.051c2.495,0,4.524,2.029,4.524,4.524V444.371z M268.024,384.762h-24.051
			c-9.573,0-17.543,6.931-19.196,16.034h-21.523c2.634-2.846,4.126-6.561,4.126-10.51v-54.657h97.235v54.657
			c0,3.95,1.492,7.665,4.126,10.51H287.22C285.567,391.691,277.597,384.762,268.024,384.762z M320.65,432.863h-33.1v-17.066h33.1
			V432.863z M432.887,488.465c0,4.704-3.828,8.533-8.533,8.533h-80.169c-4.705,0-8.533-3.828-8.533-8.533v-8.533h97.235V488.465z
			 M432.887,464.93h-97.235v-17.066h97.235V464.93z M432.887,432.863h-97.235v-17.066h97.235V432.863z M432.887,400.795h-88.515
			l88.515-19.67V400.795z M448.92,361.78c0,0.244-0.167,0.451-0.404,0.504l-128.27,28.505c-0.071,0.016-0.241,0.054-0.435-0.101
			c-0.193-0.155-0.193-0.329-0.193-0.403v-70.176c0-0.284,0.231-0.516,0.516-0.516h128.27c0.285,0,0.516,0.232,0.516,0.516V361.78z"
			/>
	</g>
</g>
<g>
	<g>
		<path d="M264.016,160.289h-16.034c-4.142,0-7.501,3.358-7.501,7.501s3.358,7.501,7.501,7.501h16.034
			c4.142,0,7.501-3.357,7.501-7.501C271.517,163.647,268.158,160.289,264.016,160.289z"/>
	</g>
</g>
<g>
	<g>
		<path d="M336.168,160.289h-40.085c-4.142,0-7.501,3.358-7.501,7.501s3.358,7.501,7.501,7.501h40.085
			c4.142,0,7.501-3.357,7.501-7.501C343.668,163.647,340.31,160.289,336.168,160.289z"/>
	</g>
</g>
<g>
</g>
<g>
</g>
<g>
</g>
<g>
</g>
<g>
</g>
<g>
</g>
<g>
</g>
<g>
</g>
<g>
</g>
<g>
</g>
<g>
</g>
<g>
</g>
<g>
</g>
<g>
</g>
<g>
</g>
</svg>
